<mxfile host="Electron" modified="2024-05-09T12:34:07.889Z" agent="Mozilla/5.0 (X11; Linux x86_64) AppleWebKit/537.36 (KHTML, like Gecko) draw.io/24.2.5 Chrome/120.0.6099.109 Electron/28.1.0 Safari/537.36" etag="JRt3BEn7lIv3xrZUJRfN" version="24.2.5" type="device" pages="8">
  <diagram name="Page-1" id="UTsY-uwNNgUhm9dza5uz">
    <mxGraphModel dx="2460" dy="957" grid="1" gridSize="10" guides="1" tooltips="1" connect="1" arrows="1" fold="1" page="1" pageScale="1" pageWidth="827" pageHeight="1169" math="1" shadow="0">
      <root>
        <mxCell id="0" />
        <mxCell id="1" parent="0" />
        <mxCell id="0dPc7uweDr_BHAximPs6-82" value="" style="endArrow=none;html=1;rounded=0;fillColor=#d80073;strokeColor=#A50040;strokeWidth=3;" parent="1" edge="1">
          <mxGeometry width="50" height="50" relative="1" as="geometry">
            <mxPoint y="800" as="sourcePoint" />
            <mxPoint y="250" as="targetPoint" />
          </mxGeometry>
        </mxCell>
        <mxCell id="0dPc7uweDr_BHAximPs6-85" value="" style="endArrow=none;html=1;rounded=0;fillColor=#d80073;strokeColor=#A50040;strokeWidth=3;" parent="1" edge="1">
          <mxGeometry width="50" height="50" relative="1" as="geometry">
            <mxPoint x="438" y="801" as="sourcePoint" />
            <mxPoint x="438" y="251" as="targetPoint" />
          </mxGeometry>
        </mxCell>
        <mxCell id="0dPc7uweDr_BHAximPs6-83" style="edgeStyle=orthogonalEdgeStyle;rounded=0;orthogonalLoop=1;jettySize=auto;html=1;" parent="1" target="0dPc7uweDr_BHAximPs6-1" edge="1">
          <mxGeometry relative="1" as="geometry">
            <mxPoint x="-20" y="465" as="sourcePoint" />
          </mxGeometry>
        </mxCell>
        <mxCell id="0dPc7uweDr_BHAximPs6-1" value="" style="ellipse;whiteSpace=wrap;html=1;aspect=fixed;rotation=-90;fillColor=#b0e3e6;strokeColor=#0e8088;" parent="1" vertex="1">
          <mxGeometry x="35" y="445" width="40" height="40" as="geometry" />
        </mxCell>
        <mxCell id="0dPc7uweDr_BHAximPs6-81" style="edgeStyle=orthogonalEdgeStyle;rounded=0;orthogonalLoop=1;jettySize=auto;html=1;entryX=1;entryY=0.5;entryDx=0;entryDy=0;curved=1;" parent="1" source="0dPc7uweDr_BHAximPs6-2" target="0dPc7uweDr_BHAximPs6-4" edge="1">
          <mxGeometry relative="1" as="geometry">
            <Array as="points">
              <mxPoint x="165" y="390" />
              <mxPoint x="383" y="390" />
            </Array>
          </mxGeometry>
        </mxCell>
        <mxCell id="0dPc7uweDr_BHAximPs6-2" value="" style="ellipse;whiteSpace=wrap;html=1;aspect=fixed;rotation=-90;" parent="1" vertex="1">
          <mxGeometry x="145" y="445" width="40" height="40" as="geometry" />
        </mxCell>
        <mxCell id="0dPc7uweDr_BHAximPs6-3" value="" style="ellipse;whiteSpace=wrap;html=1;aspect=fixed;rotation=-90;" parent="1" vertex="1">
          <mxGeometry x="253" y="445" width="40" height="40" as="geometry" />
        </mxCell>
        <mxCell id="0dPc7uweDr_BHAximPs6-10" style="edgeStyle=orthogonalEdgeStyle;rounded=0;orthogonalLoop=1;jettySize=auto;html=1;exitX=0.5;exitY=1;exitDx=0;exitDy=0;entryX=0.5;entryY=0;entryDx=0;entryDy=0;" parent="1" source="0dPc7uweDr_BHAximPs6-2" target="0dPc7uweDr_BHAximPs6-3" edge="1">
          <mxGeometry relative="1" as="geometry" />
        </mxCell>
        <mxCell id="0dPc7uweDr_BHAximPs6-4" value="" style="ellipse;whiteSpace=wrap;html=1;aspect=fixed;rotation=-90;" parent="1" vertex="1">
          <mxGeometry x="363" y="445" width="40" height="40" as="geometry" />
        </mxCell>
        <mxCell id="0dPc7uweDr_BHAximPs6-11" style="edgeStyle=orthogonalEdgeStyle;rounded=0;orthogonalLoop=1;jettySize=auto;html=1;exitX=0.5;exitY=1;exitDx=0;exitDy=0;entryX=0.5;entryY=0;entryDx=0;entryDy=0;" parent="1" source="0dPc7uweDr_BHAximPs6-3" target="0dPc7uweDr_BHAximPs6-4" edge="1">
          <mxGeometry relative="1" as="geometry" />
        </mxCell>
        <mxCell id="0dPc7uweDr_BHAximPs6-9" value="" style="endArrow=classic;html=1;rounded=0;exitX=0.5;exitY=1;exitDx=0;exitDy=0;entryX=0.5;entryY=0;entryDx=0;entryDy=0;" parent="1" source="0dPc7uweDr_BHAximPs6-1" target="0dPc7uweDr_BHAximPs6-2" edge="1">
          <mxGeometry width="50" height="50" relative="1" as="geometry">
            <mxPoint x="225" y="305" as="sourcePoint" />
            <mxPoint x="175" y="255" as="targetPoint" />
          </mxGeometry>
        </mxCell>
        <mxCell id="0dPc7uweDr_BHAximPs6-13" value="" style="ellipse;whiteSpace=wrap;html=1;aspect=fixed;rotation=-90;" parent="1" vertex="1">
          <mxGeometry x="585" y="445" width="40" height="40" as="geometry" />
        </mxCell>
        <mxCell id="0dPc7uweDr_BHAximPs6-16" style="edgeStyle=orthogonalEdgeStyle;rounded=0;orthogonalLoop=1;jettySize=auto;html=1;entryX=0.5;entryY=0;entryDx=0;entryDy=0;" parent="1" source="0dPc7uweDr_BHAximPs6-14" target="0dPc7uweDr_BHAximPs6-13" edge="1">
          <mxGeometry relative="1" as="geometry" />
        </mxCell>
        <mxCell id="0dPc7uweDr_BHAximPs6-87" style="edgeStyle=orthogonalEdgeStyle;curved=1;rounded=0;orthogonalLoop=1;jettySize=auto;html=1;fontSize=12;startSize=8;endSize=8;" parent="1" source="0dPc7uweDr_BHAximPs6-14" edge="1">
          <mxGeometry relative="1" as="geometry">
            <mxPoint x="670" y="390" as="targetPoint" />
            <Array as="points">
              <mxPoint x="495" y="390" />
            </Array>
          </mxGeometry>
        </mxCell>
        <mxCell id="0dPc7uweDr_BHAximPs6-14" value="" style="ellipse;whiteSpace=wrap;html=1;aspect=fixed;rotation=-90;fillColor=#b0e3e6;strokeColor=#0e8088;" parent="1" vertex="1">
          <mxGeometry x="475" y="445" width="40" height="40" as="geometry" />
        </mxCell>
        <mxCell id="0dPc7uweDr_BHAximPs6-12" style="edgeStyle=orthogonalEdgeStyle;rounded=0;orthogonalLoop=1;jettySize=auto;html=1;entryX=1;entryY=0.5;entryDx=0;entryDy=0;curved=1;" parent="1" source="0dPc7uweDr_BHAximPs6-1" target="0dPc7uweDr_BHAximPs6-14" edge="1">
          <mxGeometry relative="1" as="geometry">
            <mxPoint x="175" y="335" as="targetPoint" />
            <Array as="points">
              <mxPoint x="55" y="315" />
              <mxPoint x="495" y="315" />
            </Array>
          </mxGeometry>
        </mxCell>
        <mxCell id="0dPc7uweDr_BHAximPs6-19" style="edgeStyle=orthogonalEdgeStyle;rounded=0;orthogonalLoop=1;jettySize=auto;html=1;curved=1;" parent="1" source="0dPc7uweDr_BHAximPs6-3" target="0dPc7uweDr_BHAximPs6-14" edge="1">
          <mxGeometry relative="1" as="geometry">
            <Array as="points">
              <mxPoint x="273" y="545" />
              <mxPoint x="495" y="545" />
            </Array>
          </mxGeometry>
        </mxCell>
        <mxCell id="0dPc7uweDr_BHAximPs6-15" style="edgeStyle=orthogonalEdgeStyle;rounded=0;orthogonalLoop=1;jettySize=auto;html=1;entryX=0.5;entryY=0;entryDx=0;entryDy=0;" parent="1" source="0dPc7uweDr_BHAximPs6-4" target="0dPc7uweDr_BHAximPs6-14" edge="1">
          <mxGeometry relative="1" as="geometry" />
        </mxCell>
        <mxCell id="0dPc7uweDr_BHAximPs6-84" style="edgeStyle=orthogonalEdgeStyle;rounded=0;orthogonalLoop=1;jettySize=auto;html=1;" parent="1" target="0dPc7uweDr_BHAximPs6-60" edge="1">
          <mxGeometry relative="1" as="geometry">
            <mxPoint x="-20" y="712.94" as="sourcePoint" />
          </mxGeometry>
        </mxCell>
        <mxCell id="0dPc7uweDr_BHAximPs6-89" style="edgeStyle=orthogonalEdgeStyle;curved=1;rounded=0;orthogonalLoop=1;jettySize=auto;html=1;entryX=0;entryY=0.5;entryDx=0;entryDy=0;fontSize=12;startSize=8;endSize=8;" parent="1" source="0dPc7uweDr_BHAximPs6-60" target="0dPc7uweDr_BHAximPs6-62" edge="1">
          <mxGeometry relative="1" as="geometry">
            <Array as="points">
              <mxPoint x="55" y="779" />
              <mxPoint x="273" y="779" />
            </Array>
          </mxGeometry>
        </mxCell>
        <mxCell id="0dPc7uweDr_BHAximPs6-60" value="" style="ellipse;whiteSpace=wrap;html=1;aspect=fixed;rotation=-90;fillColor=#b0e3e6;strokeColor=#0e8088;" parent="1" vertex="1">
          <mxGeometry x="35" y="692.94" width="40" height="40" as="geometry" />
        </mxCell>
        <mxCell id="0dPc7uweDr_BHAximPs6-61" value="" style="ellipse;whiteSpace=wrap;html=1;aspect=fixed;rotation=-90;" parent="1" vertex="1">
          <mxGeometry x="145" y="692.94" width="40" height="40" as="geometry" />
        </mxCell>
        <mxCell id="0dPc7uweDr_BHAximPs6-62" value="" style="ellipse;whiteSpace=wrap;html=1;aspect=fixed;rotation=-90;" parent="1" vertex="1">
          <mxGeometry x="253" y="692.94" width="40" height="40" as="geometry" />
        </mxCell>
        <mxCell id="0dPc7uweDr_BHAximPs6-63" style="edgeStyle=orthogonalEdgeStyle;rounded=0;orthogonalLoop=1;jettySize=auto;html=1;exitX=0.5;exitY=1;exitDx=0;exitDy=0;entryX=0.5;entryY=0;entryDx=0;entryDy=0;" parent="1" source="0dPc7uweDr_BHAximPs6-61" target="0dPc7uweDr_BHAximPs6-62" edge="1">
          <mxGeometry relative="1" as="geometry" />
        </mxCell>
        <mxCell id="0dPc7uweDr_BHAximPs6-64" value="" style="ellipse;whiteSpace=wrap;html=1;aspect=fixed;rotation=-90;" parent="1" vertex="1">
          <mxGeometry x="363" y="692.94" width="40" height="40" as="geometry" />
        </mxCell>
        <mxCell id="0dPc7uweDr_BHAximPs6-65" style="edgeStyle=orthogonalEdgeStyle;rounded=0;orthogonalLoop=1;jettySize=auto;html=1;exitX=0.5;exitY=1;exitDx=0;exitDy=0;entryX=0.5;entryY=0;entryDx=0;entryDy=0;" parent="1" source="0dPc7uweDr_BHAximPs6-62" target="0dPc7uweDr_BHAximPs6-64" edge="1">
          <mxGeometry relative="1" as="geometry" />
        </mxCell>
        <mxCell id="0dPc7uweDr_BHAximPs6-66" value="" style="endArrow=classic;html=1;rounded=0;exitX=0.5;exitY=1;exitDx=0;exitDy=0;entryX=0.5;entryY=0;entryDx=0;entryDy=0;" parent="1" source="0dPc7uweDr_BHAximPs6-60" target="0dPc7uweDr_BHAximPs6-61" edge="1">
          <mxGeometry width="50" height="50" relative="1" as="geometry">
            <mxPoint x="225" y="552.94" as="sourcePoint" />
            <mxPoint x="175" y="502.94" as="targetPoint" />
          </mxGeometry>
        </mxCell>
        <mxCell id="U22FVbOgvW5twAr9vkWi-1" style="edgeStyle=orthogonalEdgeStyle;rounded=0;orthogonalLoop=1;jettySize=auto;html=1;" parent="1" source="0dPc7uweDr_BHAximPs6-67" edge="1">
          <mxGeometry relative="1" as="geometry">
            <mxPoint x="690" y="713" as="targetPoint" />
          </mxGeometry>
        </mxCell>
        <mxCell id="U22FVbOgvW5twAr9vkWi-3" style="edgeStyle=orthogonalEdgeStyle;rounded=0;orthogonalLoop=1;jettySize=auto;html=1;curved=1;" parent="1" source="0dPc7uweDr_BHAximPs6-67" edge="1">
          <mxGeometry relative="1" as="geometry">
            <mxPoint x="680" y="779" as="targetPoint" />
            <Array as="points">
              <mxPoint x="605" y="779" />
            </Array>
          </mxGeometry>
        </mxCell>
        <mxCell id="0dPc7uweDr_BHAximPs6-67" value="" style="ellipse;whiteSpace=wrap;html=1;aspect=fixed;rotation=-90;" parent="1" vertex="1">
          <mxGeometry x="585" y="692.94" width="40" height="40" as="geometry" />
        </mxCell>
        <mxCell id="0dPc7uweDr_BHAximPs6-68" style="edgeStyle=orthogonalEdgeStyle;rounded=0;orthogonalLoop=1;jettySize=auto;html=1;entryX=0.5;entryY=0;entryDx=0;entryDy=0;" parent="1" source="0dPc7uweDr_BHAximPs6-69" target="0dPc7uweDr_BHAximPs6-67" edge="1">
          <mxGeometry relative="1" as="geometry" />
        </mxCell>
        <mxCell id="0dPc7uweDr_BHAximPs6-69" value="" style="ellipse;whiteSpace=wrap;html=1;aspect=fixed;rotation=-90;fillColor=#b0e3e6;strokeColor=#0e8088;" parent="1" vertex="1">
          <mxGeometry x="475" y="692.94" width="40" height="40" as="geometry" />
        </mxCell>
        <mxCell id="0dPc7uweDr_BHAximPs6-72" style="edgeStyle=orthogonalEdgeStyle;rounded=0;orthogonalLoop=1;jettySize=auto;html=1;entryX=0.5;entryY=0;entryDx=0;entryDy=0;" parent="1" source="0dPc7uweDr_BHAximPs6-64" target="0dPc7uweDr_BHAximPs6-69" edge="1">
          <mxGeometry relative="1" as="geometry" />
        </mxCell>
        <mxCell id="0dPc7uweDr_BHAximPs6-73" value="0" style="text;html=1;align=center;verticalAlign=middle;resizable=0;points=[];autosize=1;strokeColor=none;fillColor=none;strokeWidth=1;fontSize=16;" parent="1" vertex="1">
          <mxGeometry x="40" y="248" width="30" height="30" as="geometry" />
        </mxCell>
        <mxCell id="0dPc7uweDr_BHAximPs6-74" value="1" style="text;html=1;align=center;verticalAlign=middle;resizable=0;points=[];autosize=1;strokeColor=none;fillColor=none;strokeWidth=1;fontSize=16;" parent="1" vertex="1">
          <mxGeometry x="150" y="248" width="30" height="30" as="geometry" />
        </mxCell>
        <mxCell id="0dPc7uweDr_BHAximPs6-75" value="2" style="text;html=1;align=center;verticalAlign=middle;resizable=0;points=[];autosize=1;strokeColor=none;fillColor=none;strokeWidth=1;fontSize=16;" parent="1" vertex="1">
          <mxGeometry x="258" y="248" width="30" height="30" as="geometry" />
        </mxCell>
        <mxCell id="0dPc7uweDr_BHAximPs6-76" value="3" style="text;html=1;align=center;verticalAlign=middle;resizable=0;points=[];autosize=1;strokeColor=none;fillColor=none;strokeWidth=1;fontSize=16;" parent="1" vertex="1">
          <mxGeometry x="368" y="248" width="30" height="30" as="geometry" />
        </mxCell>
        <mxCell id="0dPc7uweDr_BHAximPs6-77" value="0" style="text;html=1;align=center;verticalAlign=middle;resizable=0;points=[];autosize=1;strokeColor=none;fillColor=none;strokeWidth=1;fontSize=16;" parent="1" vertex="1">
          <mxGeometry x="480" y="248" width="30" height="30" as="geometry" />
        </mxCell>
        <mxCell id="0dPc7uweDr_BHAximPs6-78" value="1" style="text;html=1;align=center;verticalAlign=middle;resizable=0;points=[];autosize=1;strokeColor=none;fillColor=none;strokeWidth=1;fontSize=16;" parent="1" vertex="1">
          <mxGeometry x="590" y="248" width="30" height="30" as="geometry" />
        </mxCell>
        <mxCell id="U22FVbOgvW5twAr9vkWi-2" style="edgeStyle=orthogonalEdgeStyle;rounded=0;orthogonalLoop=1;jettySize=auto;html=1;" parent="1" source="0dPc7uweDr_BHAximPs6-13" edge="1">
          <mxGeometry relative="1" as="geometry">
            <mxPoint x="690" y="464.65999999999997" as="targetPoint" />
            <mxPoint x="625" y="464.65999999999997" as="sourcePoint" />
          </mxGeometry>
        </mxCell>
        <mxCell id="U22FVbOgvW5twAr9vkWi-4" style="edgeStyle=orthogonalEdgeStyle;rounded=0;orthogonalLoop=1;jettySize=auto;html=1;curved=1;" parent="1" source="0dPc7uweDr_BHAximPs6-60" target="0dPc7uweDr_BHAximPs6-69" edge="1">
          <mxGeometry relative="1" as="geometry">
            <mxPoint x="495" y="688" as="targetPoint" />
            <Array as="points">
              <mxPoint x="55" y="600" />
              <mxPoint x="495" y="600" />
            </Array>
            <mxPoint x="55" y="688" as="sourcePoint" />
          </mxGeometry>
        </mxCell>
      </root>
    </mxGraphModel>
  </diagram>
  <diagram name="composition_nfts_extension" id="VRqW1G-t0xJoxCOF94tV">
    <mxGraphModel dx="1931" dy="660" grid="1" gridSize="10" guides="1" tooltips="1" connect="1" arrows="1" fold="1" page="1" pageScale="1" pageWidth="827" pageHeight="1169" math="1" shadow="0">
      <root>
        <mxCell id="pDJFfSybr-9PHbqFATGs-0" />
        <mxCell id="pDJFfSybr-9PHbqFATGs-1" parent="pDJFfSybr-9PHbqFATGs-0" />
        <mxCell id="pDJFfSybr-9PHbqFATGs-5" value="" style="ellipse;whiteSpace=wrap;html=1;aspect=fixed;rotation=-90;" vertex="1" parent="pDJFfSybr-9PHbqFATGs-1">
          <mxGeometry x="35" y="445" width="40" height="40" as="geometry" />
        </mxCell>
        <mxCell id="pDJFfSybr-9PHbqFATGs-7" value="" style="ellipse;whiteSpace=wrap;html=1;aspect=fixed;rotation=-90;" vertex="1" parent="pDJFfSybr-9PHbqFATGs-1">
          <mxGeometry x="145" y="445" width="40" height="40" as="geometry" />
        </mxCell>
        <mxCell id="pDJFfSybr-9PHbqFATGs-8" value="" style="ellipse;whiteSpace=wrap;html=1;aspect=fixed;rotation=-90;fillColor=#f8cecc;strokeColor=#b85450;" vertex="1" parent="pDJFfSybr-9PHbqFATGs-1">
          <mxGeometry x="253" y="445" width="40" height="40" as="geometry" />
        </mxCell>
        <mxCell id="pDJFfSybr-9PHbqFATGs-9" style="edgeStyle=orthogonalEdgeStyle;rounded=0;orthogonalLoop=1;jettySize=auto;html=1;exitX=0.5;exitY=1;exitDx=0;exitDy=0;entryX=0.5;entryY=0;entryDx=0;entryDy=0;" edge="1" parent="pDJFfSybr-9PHbqFATGs-1" source="pDJFfSybr-9PHbqFATGs-7" target="pDJFfSybr-9PHbqFATGs-8">
          <mxGeometry relative="1" as="geometry" />
        </mxCell>
        <mxCell id="pDJFfSybr-9PHbqFATGs-11" style="edgeStyle=orthogonalEdgeStyle;rounded=0;orthogonalLoop=1;jettySize=auto;html=1;exitX=0.5;exitY=1;exitDx=0;exitDy=0;" edge="1" parent="pDJFfSybr-9PHbqFATGs-1" source="pDJFfSybr-9PHbqFATGs-8">
          <mxGeometry relative="1" as="geometry">
            <mxPoint x="360" y="465" as="targetPoint" />
          </mxGeometry>
        </mxCell>
        <mxCell id="pDJFfSybr-9PHbqFATGs-12" value="" style="endArrow=classic;html=1;rounded=0;exitX=0.5;exitY=1;exitDx=0;exitDy=0;entryX=0.5;entryY=0;entryDx=0;entryDy=0;" edge="1" parent="pDJFfSybr-9PHbqFATGs-1" source="pDJFfSybr-9PHbqFATGs-5" target="pDJFfSybr-9PHbqFATGs-7">
          <mxGeometry width="50" height="50" relative="1" as="geometry">
            <mxPoint x="225" y="305" as="sourcePoint" />
            <mxPoint x="175" y="255" as="targetPoint" />
          </mxGeometry>
        </mxCell>
        <mxCell id="pDJFfSybr-9PHbqFATGs-22" value="" style="ellipse;whiteSpace=wrap;html=1;aspect=fixed;rotation=-90;fillColor=#f8cecc;strokeColor=#b85450;" vertex="1" parent="pDJFfSybr-9PHbqFATGs-1">
          <mxGeometry x="253" y="545" width="40" height="40" as="geometry" />
        </mxCell>
        <mxCell id="pDJFfSybr-9PHbqFATGs-23" value="" style="ellipse;whiteSpace=wrap;html=1;aspect=fixed;rotation=-90;" vertex="1" parent="pDJFfSybr-9PHbqFATGs-1">
          <mxGeometry x="365" y="545" width="40" height="40" as="geometry" />
        </mxCell>
        <mxCell id="pDJFfSybr-9PHbqFATGs-24" value="" style="ellipse;whiteSpace=wrap;html=1;aspect=fixed;rotation=-90;" vertex="1" parent="pDJFfSybr-9PHbqFATGs-1">
          <mxGeometry x="473" y="545" width="40" height="40" as="geometry" />
        </mxCell>
        <mxCell id="pDJFfSybr-9PHbqFATGs-25" style="edgeStyle=orthogonalEdgeStyle;rounded=0;orthogonalLoop=1;jettySize=auto;html=1;exitX=0.5;exitY=1;exitDx=0;exitDy=0;entryX=0.5;entryY=0;entryDx=0;entryDy=0;" edge="1" parent="pDJFfSybr-9PHbqFATGs-1" source="pDJFfSybr-9PHbqFATGs-23" target="pDJFfSybr-9PHbqFATGs-24">
          <mxGeometry relative="1" as="geometry" />
        </mxCell>
        <mxCell id="pDJFfSybr-9PHbqFATGs-27" style="edgeStyle=orthogonalEdgeStyle;rounded=0;orthogonalLoop=1;jettySize=auto;html=1;exitX=0.5;exitY=1;exitDx=0;exitDy=0;entryX=0.5;entryY=0;entryDx=0;entryDy=0;" edge="1" parent="pDJFfSybr-9PHbqFATGs-1" source="pDJFfSybr-9PHbqFATGs-24">
          <mxGeometry relative="1" as="geometry">
            <mxPoint x="583" y="565" as="targetPoint" />
          </mxGeometry>
        </mxCell>
        <mxCell id="pDJFfSybr-9PHbqFATGs-28" value="" style="endArrow=classic;html=1;rounded=0;exitX=0.5;exitY=1;exitDx=0;exitDy=0;entryX=0.5;entryY=0;entryDx=0;entryDy=0;" edge="1" parent="pDJFfSybr-9PHbqFATGs-1" source="pDJFfSybr-9PHbqFATGs-22" target="pDJFfSybr-9PHbqFATGs-23">
          <mxGeometry width="50" height="50" relative="1" as="geometry">
            <mxPoint x="445" y="405.00000000000006" as="sourcePoint" />
            <mxPoint x="395" y="355" as="targetPoint" />
          </mxGeometry>
        </mxCell>
        <mxCell id="pDJFfSybr-9PHbqFATGs-35" value="0" style="text;html=1;align=center;verticalAlign=middle;resizable=0;points=[];autosize=1;strokeColor=none;fillColor=none;strokeWidth=1;fontSize=16;" vertex="1" parent="pDJFfSybr-9PHbqFATGs-1">
          <mxGeometry x="40" y="400" width="30" height="30" as="geometry" />
        </mxCell>
        <mxCell id="pDJFfSybr-9PHbqFATGs-36" value="1" style="text;html=1;align=center;verticalAlign=middle;resizable=0;points=[];autosize=1;strokeColor=none;fillColor=none;strokeWidth=1;fontSize=16;" vertex="1" parent="pDJFfSybr-9PHbqFATGs-1">
          <mxGeometry x="150" y="400" width="30" height="30" as="geometry" />
        </mxCell>
        <mxCell id="pDJFfSybr-9PHbqFATGs-37" value="2" style="text;html=1;align=center;verticalAlign=middle;resizable=0;points=[];autosize=1;strokeColor=none;fillColor=none;strokeWidth=1;fontSize=16;" vertex="1" parent="pDJFfSybr-9PHbqFATGs-1">
          <mxGeometry x="258" y="400" width="30" height="30" as="geometry" />
        </mxCell>
        <mxCell id="UwT3hwQNvF54EuhvdC_Z-10" value="2" style="text;html=1;align=center;verticalAlign=middle;resizable=0;points=[];autosize=1;strokeColor=none;fillColor=none;strokeWidth=1;fontSize=16;" vertex="1" parent="pDJFfSybr-9PHbqFATGs-1">
          <mxGeometry x="258" y="590" width="30" height="30" as="geometry" />
        </mxCell>
        <mxCell id="UwT3hwQNvF54EuhvdC_Z-11" value="3" style="text;html=1;align=center;verticalAlign=middle;resizable=0;points=[];autosize=1;strokeColor=none;fillColor=none;strokeWidth=1;fontSize=16;" vertex="1" parent="pDJFfSybr-9PHbqFATGs-1">
          <mxGeometry x="370" y="590" width="30" height="30" as="geometry" />
        </mxCell>
        <mxCell id="UwT3hwQNvF54EuhvdC_Z-12" value="4" style="text;html=1;align=center;verticalAlign=middle;resizable=0;points=[];autosize=1;strokeColor=none;fillColor=none;strokeWidth=1;fontSize=16;" vertex="1" parent="pDJFfSybr-9PHbqFATGs-1">
          <mxGeometry x="478" y="590" width="30" height="30" as="geometry" />
        </mxCell>
        <mxCell id="UwT3hwQNvF54EuhvdC_Z-14" value="" style="endArrow=none;html=1;rounded=0;fillColor=#d80073;strokeColor=#A50040;strokeWidth=3;" edge="1" parent="pDJFfSybr-9PHbqFATGs-1">
          <mxGeometry width="50" height="50" relative="1" as="geometry">
            <mxPoint x="220" y="620" as="sourcePoint" />
            <mxPoint x="220" y="520" as="targetPoint" />
          </mxGeometry>
        </mxCell>
        <mxCell id="UwT3hwQNvF54EuhvdC_Z-15" value="" style="endArrow=none;html=1;rounded=0;fillColor=#d80073;strokeColor=#A50040;strokeWidth=3;" edge="1" parent="pDJFfSybr-9PHbqFATGs-1">
          <mxGeometry width="50" height="50" relative="1" as="geometry">
            <mxPoint y="510" as="sourcePoint" />
            <mxPoint y="410" as="targetPoint" />
          </mxGeometry>
        </mxCell>
        <mxCell id="UwT3hwQNvF54EuhvdC_Z-16" value="" style="endArrow=none;html=1;rounded=0;fillColor=#d80073;strokeColor=#A50040;strokeWidth=3;" edge="1" parent="pDJFfSybr-9PHbqFATGs-1">
          <mxGeometry width="50" height="50" relative="1" as="geometry">
            <mxPoint x="330" y="510" as="sourcePoint" />
            <mxPoint x="330" y="410" as="targetPoint" />
          </mxGeometry>
        </mxCell>
        <mxCell id="UwT3hwQNvF54EuhvdC_Z-17" value="" style="endArrow=none;html=1;rounded=0;fillColor=#d80073;strokeColor=#A50040;strokeWidth=3;" edge="1" parent="pDJFfSybr-9PHbqFATGs-1">
          <mxGeometry width="50" height="50" relative="1" as="geometry">
            <mxPoint x="550" y="620" as="sourcePoint" />
            <mxPoint x="550" y="520" as="targetPoint" />
          </mxGeometry>
        </mxCell>
        <mxCell id="XukK4U3YXxjj35dgQkM_-0" value="" style="endArrow=classic;html=1;rounded=0;exitX=0.5;exitY=1;exitDx=0;exitDy=0;entryX=0.5;entryY=0;entryDx=0;entryDy=0;" edge="1" parent="pDJFfSybr-9PHbqFATGs-1">
          <mxGeometry width="50" height="50" relative="1" as="geometry">
            <mxPoint x="181" y="564.83" as="sourcePoint" />
            <mxPoint x="253" y="564.83" as="targetPoint" />
          </mxGeometry>
        </mxCell>
        <mxCell id="XukK4U3YXxjj35dgQkM_-1" value="" style="endArrow=classic;html=1;rounded=0;exitX=0.5;exitY=1;exitDx=0;exitDy=0;entryX=0.5;entryY=0;entryDx=0;entryDy=0;" edge="1" parent="pDJFfSybr-9PHbqFATGs-1">
          <mxGeometry width="50" height="50" relative="1" as="geometry">
            <mxPoint x="-37" y="464.83000000000004" as="sourcePoint" />
            <mxPoint x="35" y="464.83000000000004" as="targetPoint" />
          </mxGeometry>
        </mxCell>
      </root>
    </mxGraphModel>
  </diagram>
  <diagram name="composition_nfts_extension_balanced" id="4C9y6jV-fBpOCbxwMlBr">
    <mxGraphModel dx="2161" dy="798" grid="1" gridSize="10" guides="1" tooltips="1" connect="1" arrows="1" fold="1" page="1" pageScale="1" pageWidth="827" pageHeight="1169" math="1" shadow="0">
      <root>
        <mxCell id="gzAX9wVfBLTMtwe2-mQY-0" />
        <mxCell id="gzAX9wVfBLTMtwe2-mQY-1" parent="gzAX9wVfBLTMtwe2-mQY-0" />
        <mxCell id="gzAX9wVfBLTMtwe2-mQY-3" value="" style="ellipse;whiteSpace=wrap;html=1;aspect=fixed;rotation=-90;" vertex="1" parent="gzAX9wVfBLTMtwe2-mQY-1">
          <mxGeometry x="35" y="445" width="40" height="40" as="geometry" />
        </mxCell>
        <mxCell id="gzAX9wVfBLTMtwe2-mQY-4" value="" style="ellipse;whiteSpace=wrap;html=1;aspect=fixed;rotation=-90;" vertex="1" parent="gzAX9wVfBLTMtwe2-mQY-1">
          <mxGeometry x="150" y="445" width="40" height="40" as="geometry" />
        </mxCell>
        <mxCell id="gzAX9wVfBLTMtwe2-mQY-5" value="" style="ellipse;whiteSpace=wrap;html=1;aspect=fixed;rotation=-90;fillColor=#f8cecc;strokeColor=#b85450;" vertex="1" parent="gzAX9wVfBLTMtwe2-mQY-1">
          <mxGeometry x="253" y="445" width="40" height="40" as="geometry" />
        </mxCell>
        <mxCell id="gzAX9wVfBLTMtwe2-mQY-6" style="edgeStyle=orthogonalEdgeStyle;rounded=0;orthogonalLoop=1;jettySize=auto;html=1;exitX=0.5;exitY=1;exitDx=0;exitDy=0;entryX=0.5;entryY=0;entryDx=0;entryDy=0;" edge="1" parent="gzAX9wVfBLTMtwe2-mQY-1" source="gzAX9wVfBLTMtwe2-mQY-4" target="gzAX9wVfBLTMtwe2-mQY-5">
          <mxGeometry relative="1" as="geometry" />
        </mxCell>
        <mxCell id="gzAX9wVfBLTMtwe2-mQY-7" style="edgeStyle=orthogonalEdgeStyle;rounded=0;orthogonalLoop=1;jettySize=auto;html=1;exitX=0.5;exitY=1;exitDx=0;exitDy=0;" edge="1" parent="gzAX9wVfBLTMtwe2-mQY-1" source="gzAX9wVfBLTMtwe2-mQY-5">
          <mxGeometry relative="1" as="geometry">
            <mxPoint x="360" y="465" as="targetPoint" />
          </mxGeometry>
        </mxCell>
        <mxCell id="gzAX9wVfBLTMtwe2-mQY-8" value="" style="endArrow=classic;html=1;rounded=0;exitX=0.5;exitY=1;exitDx=0;exitDy=0;entryX=0.5;entryY=0;entryDx=0;entryDy=0;" edge="1" parent="gzAX9wVfBLTMtwe2-mQY-1" source="gzAX9wVfBLTMtwe2-mQY-3" target="gzAX9wVfBLTMtwe2-mQY-4">
          <mxGeometry width="50" height="50" relative="1" as="geometry">
            <mxPoint x="225" y="305" as="sourcePoint" />
            <mxPoint x="175" y="255" as="targetPoint" />
          </mxGeometry>
        </mxCell>
        <mxCell id="gzAX9wVfBLTMtwe2-mQY-10" value="" style="ellipse;whiteSpace=wrap;html=1;aspect=fixed;rotation=-90;fillColor=#f8cecc;strokeColor=#b85450;" vertex="1" parent="gzAX9wVfBLTMtwe2-mQY-1">
          <mxGeometry x="253" y="545" width="40" height="40" as="geometry" />
        </mxCell>
        <mxCell id="gzAX9wVfBLTMtwe2-mQY-11" value="" style="ellipse;whiteSpace=wrap;html=1;aspect=fixed;rotation=-90;" vertex="1" parent="gzAX9wVfBLTMtwe2-mQY-1">
          <mxGeometry x="365" y="545" width="40" height="40" as="geometry" />
        </mxCell>
        <mxCell id="gzAX9wVfBLTMtwe2-mQY-12" value="" style="ellipse;whiteSpace=wrap;html=1;aspect=fixed;rotation=-90;" vertex="1" parent="gzAX9wVfBLTMtwe2-mQY-1">
          <mxGeometry x="473" y="545" width="40" height="40" as="geometry" />
        </mxCell>
        <mxCell id="gzAX9wVfBLTMtwe2-mQY-13" style="edgeStyle=orthogonalEdgeStyle;rounded=0;orthogonalLoop=1;jettySize=auto;html=1;exitX=0.5;exitY=1;exitDx=0;exitDy=0;entryX=0.5;entryY=0;entryDx=0;entryDy=0;" edge="1" parent="gzAX9wVfBLTMtwe2-mQY-1" source="gzAX9wVfBLTMtwe2-mQY-11" target="gzAX9wVfBLTMtwe2-mQY-12">
          <mxGeometry relative="1" as="geometry" />
        </mxCell>
        <mxCell id="gzAX9wVfBLTMtwe2-mQY-14" style="edgeStyle=orthogonalEdgeStyle;rounded=0;orthogonalLoop=1;jettySize=auto;html=1;exitX=0.5;exitY=1;exitDx=0;exitDy=0;entryX=0.5;entryY=0;entryDx=0;entryDy=0;" edge="1" parent="gzAX9wVfBLTMtwe2-mQY-1" source="gzAX9wVfBLTMtwe2-mQY-12">
          <mxGeometry relative="1" as="geometry">
            <mxPoint x="583" y="565" as="targetPoint" />
          </mxGeometry>
        </mxCell>
        <mxCell id="gzAX9wVfBLTMtwe2-mQY-15" value="" style="endArrow=classic;html=1;rounded=0;exitX=0.5;exitY=1;exitDx=0;exitDy=0;entryX=0.5;entryY=0;entryDx=0;entryDy=0;" edge="1" parent="gzAX9wVfBLTMtwe2-mQY-1" source="gzAX9wVfBLTMtwe2-mQY-10" target="gzAX9wVfBLTMtwe2-mQY-11">
          <mxGeometry width="50" height="50" relative="1" as="geometry">
            <mxPoint x="445" y="405.00000000000006" as="sourcePoint" />
            <mxPoint x="395" y="355" as="targetPoint" />
          </mxGeometry>
        </mxCell>
        <mxCell id="gzAX9wVfBLTMtwe2-mQY-16" value="0" style="text;html=1;align=center;verticalAlign=middle;resizable=0;points=[];autosize=1;strokeColor=none;fillColor=none;strokeWidth=1;fontSize=16;" vertex="1" parent="gzAX9wVfBLTMtwe2-mQY-1">
          <mxGeometry x="40" y="400" width="30" height="30" as="geometry" />
        </mxCell>
        <mxCell id="gzAX9wVfBLTMtwe2-mQY-17" value="1" style="text;html=1;align=center;verticalAlign=middle;resizable=0;points=[];autosize=1;strokeColor=none;fillColor=none;strokeWidth=1;fontSize=16;" vertex="1" parent="gzAX9wVfBLTMtwe2-mQY-1">
          <mxGeometry x="155" y="400" width="30" height="30" as="geometry" />
        </mxCell>
        <mxCell id="gzAX9wVfBLTMtwe2-mQY-18" value="2" style="text;html=1;align=center;verticalAlign=middle;resizable=0;points=[];autosize=1;strokeColor=none;fillColor=none;strokeWidth=1;fontSize=16;" vertex="1" parent="gzAX9wVfBLTMtwe2-mQY-1">
          <mxGeometry x="258" y="400" width="30" height="30" as="geometry" />
        </mxCell>
        <mxCell id="gzAX9wVfBLTMtwe2-mQY-19" value="2" style="text;html=1;align=center;verticalAlign=middle;resizable=0;points=[];autosize=1;strokeColor=none;fillColor=none;strokeWidth=1;fontSize=16;" vertex="1" parent="gzAX9wVfBLTMtwe2-mQY-1">
          <mxGeometry x="258" y="590" width="30" height="30" as="geometry" />
        </mxCell>
        <mxCell id="gzAX9wVfBLTMtwe2-mQY-20" value="3" style="text;html=1;align=center;verticalAlign=middle;resizable=0;points=[];autosize=1;strokeColor=none;fillColor=none;strokeWidth=1;fontSize=16;" vertex="1" parent="gzAX9wVfBLTMtwe2-mQY-1">
          <mxGeometry x="370" y="590" width="30" height="30" as="geometry" />
        </mxCell>
        <mxCell id="gzAX9wVfBLTMtwe2-mQY-21" value="4" style="text;html=1;align=center;verticalAlign=middle;resizable=0;points=[];autosize=1;strokeColor=none;fillColor=none;strokeWidth=1;fontSize=16;" vertex="1" parent="gzAX9wVfBLTMtwe2-mQY-1">
          <mxGeometry x="478" y="590" width="30" height="30" as="geometry" />
        </mxCell>
        <mxCell id="gzAX9wVfBLTMtwe2-mQY-22" value="" style="endArrow=none;html=1;rounded=0;fillColor=#d80073;strokeColor=#A50040;strokeWidth=3;" edge="1" parent="gzAX9wVfBLTMtwe2-mQY-1">
          <mxGeometry width="50" height="50" relative="1" as="geometry">
            <mxPoint y="620" as="sourcePoint" />
            <mxPoint y="520" as="targetPoint" />
          </mxGeometry>
        </mxCell>
        <mxCell id="gzAX9wVfBLTMtwe2-mQY-23" value="" style="endArrow=none;html=1;rounded=0;fillColor=#d80073;strokeColor=#A50040;strokeWidth=3;" edge="1" parent="gzAX9wVfBLTMtwe2-mQY-1">
          <mxGeometry width="50" height="50" relative="1" as="geometry">
            <mxPoint y="510" as="sourcePoint" />
            <mxPoint y="410" as="targetPoint" />
          </mxGeometry>
        </mxCell>
        <mxCell id="gzAX9wVfBLTMtwe2-mQY-24" value="" style="endArrow=none;html=1;rounded=0;fillColor=#d80073;strokeColor=#A50040;strokeWidth=3;" edge="1" parent="gzAX9wVfBLTMtwe2-mQY-1">
          <mxGeometry width="50" height="50" relative="1" as="geometry">
            <mxPoint x="550" y="509" as="sourcePoint" />
            <mxPoint x="550" y="409" as="targetPoint" />
          </mxGeometry>
        </mxCell>
        <mxCell id="gzAX9wVfBLTMtwe2-mQY-25" value="" style="endArrow=none;html=1;rounded=0;fillColor=#d80073;strokeColor=#A50040;strokeWidth=3;" edge="1" parent="gzAX9wVfBLTMtwe2-mQY-1">
          <mxGeometry width="50" height="50" relative="1" as="geometry">
            <mxPoint x="550" y="620" as="sourcePoint" />
            <mxPoint x="550" y="520" as="targetPoint" />
          </mxGeometry>
        </mxCell>
        <mxCell id="Ib3Ny4zmB9fBaFlIBXUs-1" value="" style="ellipse;whiteSpace=wrap;html=1;aspect=fixed;rotation=-90;fillColor=#dae8fc;strokeColor=#6c8ebf;" vertex="1" parent="gzAX9wVfBLTMtwe2-mQY-1">
          <mxGeometry x="35" y="545" width="40" height="40" as="geometry" />
        </mxCell>
        <mxCell id="Ib3Ny4zmB9fBaFlIBXUs-2" value="" style="ellipse;whiteSpace=wrap;html=1;aspect=fixed;rotation=-90;fillColor=#dae8fc;strokeColor=#6c8ebf;" vertex="1" parent="gzAX9wVfBLTMtwe2-mQY-1">
          <mxGeometry x="145" y="545" width="40" height="40" as="geometry" />
        </mxCell>
        <mxCell id="Ib3Ny4zmB9fBaFlIBXUs-3" value="" style="endArrow=classic;html=1;rounded=0;exitX=0.5;exitY=1;exitDx=0;exitDy=0;entryX=0.5;entryY=0;entryDx=0;entryDy=0;" edge="1" source="Ib3Ny4zmB9fBaFlIBXUs-1" target="Ib3Ny4zmB9fBaFlIBXUs-2" parent="gzAX9wVfBLTMtwe2-mQY-1">
          <mxGeometry width="50" height="50" relative="1" as="geometry">
            <mxPoint x="225" y="405" as="sourcePoint" />
            <mxPoint x="175" y="355" as="targetPoint" />
          </mxGeometry>
        </mxCell>
        <mxCell id="Ib3Ny4zmB9fBaFlIBXUs-4" value="0" style="text;html=1;align=center;verticalAlign=middle;resizable=0;points=[];autosize=1;strokeColor=none;fillColor=none;strokeWidth=1;fontSize=16;" vertex="1" parent="gzAX9wVfBLTMtwe2-mQY-1">
          <mxGeometry x="40" y="590" width="30" height="30" as="geometry" />
        </mxCell>
        <mxCell id="Ib3Ny4zmB9fBaFlIBXUs-5" value="1" style="text;html=1;align=center;verticalAlign=middle;resizable=0;points=[];autosize=1;strokeColor=none;fillColor=none;strokeWidth=1;fontSize=16;" vertex="1" parent="gzAX9wVfBLTMtwe2-mQY-1">
          <mxGeometry x="150" y="590" width="30" height="30" as="geometry" />
        </mxCell>
        <mxCell id="Ib3Ny4zmB9fBaFlIBXUs-6" style="edgeStyle=orthogonalEdgeStyle;rounded=0;orthogonalLoop=1;jettySize=auto;html=1;exitX=0.5;exitY=1;exitDx=0;exitDy=0;entryX=0.5;entryY=0;entryDx=0;entryDy=0;" edge="1" source="Ib3Ny4zmB9fBaFlIBXUs-2" parent="gzAX9wVfBLTMtwe2-mQY-1">
          <mxGeometry relative="1" as="geometry">
            <mxPoint x="253" y="565" as="targetPoint" />
          </mxGeometry>
        </mxCell>
        <mxCell id="Ib3Ny4zmB9fBaFlIBXUs-7" value="?" style="text;html=1;align=center;verticalAlign=middle;resizable=0;points=[];autosize=1;strokeColor=none;fillColor=none;" vertex="1" parent="gzAX9wVfBLTMtwe2-mQY-1">
          <mxGeometry x="90" y="538" width="30" height="30" as="geometry" />
        </mxCell>
        <mxCell id="Ib3Ny4zmB9fBaFlIBXUs-8" value="?" style="text;html=1;align=center;verticalAlign=middle;resizable=0;points=[];autosize=1;strokeColor=none;fillColor=none;" vertex="1" parent="gzAX9wVfBLTMtwe2-mQY-1">
          <mxGeometry x="200" y="538" width="30" height="30" as="geometry" />
        </mxCell>
        <mxCell id="3xkCG0Yb3_S54dzxemVu-0" value="" style="ellipse;whiteSpace=wrap;html=1;aspect=fixed;rotation=-90;fillColor=#dae8fc;strokeColor=#6c8ebf;" vertex="1" parent="gzAX9wVfBLTMtwe2-mQY-1">
          <mxGeometry x="360" y="445" width="40" height="40" as="geometry" />
        </mxCell>
        <mxCell id="3xkCG0Yb3_S54dzxemVu-1" value="" style="ellipse;whiteSpace=wrap;html=1;aspect=fixed;rotation=-90;fillColor=#dae8fc;strokeColor=#6c8ebf;" vertex="1" parent="gzAX9wVfBLTMtwe2-mQY-1">
          <mxGeometry x="468" y="445" width="40" height="40" as="geometry" />
        </mxCell>
        <mxCell id="3xkCG0Yb3_S54dzxemVu-2" style="edgeStyle=orthogonalEdgeStyle;rounded=0;orthogonalLoop=1;jettySize=auto;html=1;exitX=0.5;exitY=1;exitDx=0;exitDy=0;entryX=0.5;entryY=0;entryDx=0;entryDy=0;" edge="1" source="3xkCG0Yb3_S54dzxemVu-0" target="3xkCG0Yb3_S54dzxemVu-1" parent="gzAX9wVfBLTMtwe2-mQY-1">
          <mxGeometry relative="1" as="geometry" />
        </mxCell>
        <mxCell id="3xkCG0Yb3_S54dzxemVu-3" value="3" style="text;html=1;align=center;verticalAlign=middle;resizable=0;points=[];autosize=1;strokeColor=none;fillColor=none;strokeWidth=1;fontSize=16;" vertex="1" parent="gzAX9wVfBLTMtwe2-mQY-1">
          <mxGeometry x="365" y="400" width="30" height="30" as="geometry" />
        </mxCell>
        <mxCell id="3xkCG0Yb3_S54dzxemVu-4" value="4" style="text;html=1;align=center;verticalAlign=middle;resizable=0;points=[];autosize=1;strokeColor=none;fillColor=none;strokeWidth=1;fontSize=16;" vertex="1" parent="gzAX9wVfBLTMtwe2-mQY-1">
          <mxGeometry x="478" y="400" width="30" height="30" as="geometry" />
        </mxCell>
        <mxCell id="3xkCG0Yb3_S54dzxemVu-5" style="edgeStyle=orthogonalEdgeStyle;rounded=0;orthogonalLoop=1;jettySize=auto;html=1;exitX=0.5;exitY=1;exitDx=0;exitDy=0;entryX=0.5;entryY=0;entryDx=0;entryDy=0;" edge="1" source="3xkCG0Yb3_S54dzxemVu-1" parent="gzAX9wVfBLTMtwe2-mQY-1">
          <mxGeometry relative="1" as="geometry">
            <mxPoint x="578" y="465" as="targetPoint" />
          </mxGeometry>
        </mxCell>
        <mxCell id="3xkCG0Yb3_S54dzxemVu-6" value="?" style="text;html=1;align=center;verticalAlign=middle;resizable=0;points=[];autosize=1;strokeColor=none;fillColor=none;" vertex="1" parent="gzAX9wVfBLTMtwe2-mQY-1">
          <mxGeometry x="414" y="430" width="30" height="30" as="geometry" />
        </mxCell>
        <mxCell id="3xkCG0Yb3_S54dzxemVu-7" value="?" style="text;html=1;align=center;verticalAlign=middle;resizable=0;points=[];autosize=1;strokeColor=none;fillColor=none;" vertex="1" parent="gzAX9wVfBLTMtwe2-mQY-1">
          <mxGeometry x="520" y="430" width="30" height="30" as="geometry" />
        </mxCell>
        <mxCell id="3xkCG0Yb3_S54dzxemVu-8" style="edgeStyle=orthogonalEdgeStyle;rounded=0;orthogonalLoop=1;jettySize=auto;html=1;exitX=0.5;exitY=1;exitDx=0;exitDy=0;entryX=0.5;entryY=0;entryDx=0;entryDy=0;" edge="1" parent="gzAX9wVfBLTMtwe2-mQY-1">
          <mxGeometry relative="1" as="geometry">
            <mxPoint x="-33" y="564.86" as="sourcePoint" />
            <mxPoint x="35" y="564.86" as="targetPoint" />
          </mxGeometry>
        </mxCell>
        <mxCell id="3xkCG0Yb3_S54dzxemVu-9" style="edgeStyle=orthogonalEdgeStyle;rounded=0;orthogonalLoop=1;jettySize=auto;html=1;exitX=0.5;exitY=1;exitDx=0;exitDy=0;entryX=0.5;entryY=0;entryDx=0;entryDy=0;" edge="1" parent="gzAX9wVfBLTMtwe2-mQY-1">
          <mxGeometry relative="1" as="geometry">
            <mxPoint x="-33" y="464.86" as="sourcePoint" />
            <mxPoint x="35" y="464.86" as="targetPoint" />
          </mxGeometry>
        </mxCell>
      </root>
    </mxGraphModel>
  </diagram>
  <diagram name="composition_nfts_extension_loops" id="jAG0BvVpic0A5tfKLUXI">
    <mxGraphModel dx="2428" dy="957" grid="1" gridSize="10" guides="1" tooltips="1" connect="1" arrows="1" fold="1" page="1" pageScale="1" pageWidth="827" pageHeight="1169" math="1" shadow="0">
      <root>
        <mxCell id="swYCqQo6pgyoW7QARMYc-0" />
        <mxCell id="swYCqQo6pgyoW7QARMYc-1" parent="swYCqQo6pgyoW7QARMYc-0" />
        <mxCell id="swYCqQo6pgyoW7QARMYc-2" style="edgeStyle=orthogonalEdgeStyle;rounded=0;orthogonalLoop=1;jettySize=auto;html=1;exitX=1;exitY=0;exitDx=0;exitDy=0;curved=1;" edge="1" parent="swYCqQo6pgyoW7QARMYc-1" source="swYCqQo6pgyoW7QARMYc-3" target="swYCqQo6pgyoW7QARMYc-45">
          <mxGeometry relative="1" as="geometry">
            <Array as="points">
              <mxPoint x="20" y="451" />
            </Array>
          </mxGeometry>
        </mxCell>
        <mxCell id="swYCqQo6pgyoW7QARMYc-3" value="" style="ellipse;whiteSpace=wrap;html=1;aspect=fixed;rotation=-90;" vertex="1" parent="swYCqQo6pgyoW7QARMYc-1">
          <mxGeometry x="35" y="445" width="40" height="40" as="geometry" />
        </mxCell>
        <mxCell id="swYCqQo6pgyoW7QARMYc-4" value="" style="ellipse;whiteSpace=wrap;html=1;aspect=fixed;rotation=-90;" vertex="1" parent="swYCqQo6pgyoW7QARMYc-1">
          <mxGeometry x="150" y="445" width="40" height="40" as="geometry" />
        </mxCell>
        <mxCell id="swYCqQo6pgyoW7QARMYc-5" value="" style="ellipse;whiteSpace=wrap;html=1;aspect=fixed;rotation=-90;fillColor=#f8cecc;strokeColor=#b85450;" vertex="1" parent="swYCqQo6pgyoW7QARMYc-1">
          <mxGeometry x="253" y="445" width="40" height="40" as="geometry" />
        </mxCell>
        <mxCell id="swYCqQo6pgyoW7QARMYc-6" style="edgeStyle=orthogonalEdgeStyle;rounded=0;orthogonalLoop=1;jettySize=auto;html=1;exitX=0.5;exitY=1;exitDx=0;exitDy=0;entryX=0.5;entryY=0;entryDx=0;entryDy=0;" edge="1" parent="swYCqQo6pgyoW7QARMYc-1" source="swYCqQo6pgyoW7QARMYc-4" target="swYCqQo6pgyoW7QARMYc-5">
          <mxGeometry relative="1" as="geometry" />
        </mxCell>
        <mxCell id="swYCqQo6pgyoW7QARMYc-7" style="edgeStyle=orthogonalEdgeStyle;rounded=0;orthogonalLoop=1;jettySize=auto;html=1;exitX=0.5;exitY=1;exitDx=0;exitDy=0;" edge="1" parent="swYCqQo6pgyoW7QARMYc-1" source="swYCqQo6pgyoW7QARMYc-5">
          <mxGeometry relative="1" as="geometry">
            <mxPoint x="360" y="465" as="targetPoint" />
          </mxGeometry>
        </mxCell>
        <mxCell id="swYCqQo6pgyoW7QARMYc-8" value="" style="endArrow=classic;html=1;rounded=0;exitX=0.5;exitY=1;exitDx=0;exitDy=0;entryX=0.5;entryY=0;entryDx=0;entryDy=0;" edge="1" parent="swYCqQo6pgyoW7QARMYc-1" source="swYCqQo6pgyoW7QARMYc-3" target="swYCqQo6pgyoW7QARMYc-4">
          <mxGeometry width="50" height="50" relative="1" as="geometry">
            <mxPoint x="225" y="305" as="sourcePoint" />
            <mxPoint x="175" y="255" as="targetPoint" />
          </mxGeometry>
        </mxCell>
        <mxCell id="swYCqQo6pgyoW7QARMYc-9" value="" style="ellipse;whiteSpace=wrap;html=1;aspect=fixed;rotation=-90;fillColor=#f8cecc;strokeColor=#b85450;" vertex="1" parent="swYCqQo6pgyoW7QARMYc-1">
          <mxGeometry x="253" y="545" width="40" height="40" as="geometry" />
        </mxCell>
        <mxCell id="swYCqQo6pgyoW7QARMYc-10" value="" style="ellipse;whiteSpace=wrap;html=1;aspect=fixed;rotation=-90;" vertex="1" parent="swYCqQo6pgyoW7QARMYc-1">
          <mxGeometry x="365" y="545" width="40" height="40" as="geometry" />
        </mxCell>
        <mxCell id="swYCqQo6pgyoW7QARMYc-11" value="" style="ellipse;whiteSpace=wrap;html=1;aspect=fixed;rotation=-90;" vertex="1" parent="swYCqQo6pgyoW7QARMYc-1">
          <mxGeometry x="473" y="545" width="40" height="40" as="geometry" />
        </mxCell>
        <mxCell id="swYCqQo6pgyoW7QARMYc-12" style="edgeStyle=orthogonalEdgeStyle;rounded=0;orthogonalLoop=1;jettySize=auto;html=1;exitX=0.5;exitY=1;exitDx=0;exitDy=0;entryX=0.5;entryY=0;entryDx=0;entryDy=0;" edge="1" parent="swYCqQo6pgyoW7QARMYc-1" source="swYCqQo6pgyoW7QARMYc-10" target="swYCqQo6pgyoW7QARMYc-11">
          <mxGeometry relative="1" as="geometry" />
        </mxCell>
        <mxCell id="swYCqQo6pgyoW7QARMYc-13" style="edgeStyle=orthogonalEdgeStyle;rounded=0;orthogonalLoop=1;jettySize=auto;html=1;exitX=0.5;exitY=1;exitDx=0;exitDy=0;entryX=0.5;entryY=0;entryDx=0;entryDy=0;" edge="1" parent="swYCqQo6pgyoW7QARMYc-1" source="swYCqQo6pgyoW7QARMYc-11">
          <mxGeometry relative="1" as="geometry">
            <mxPoint x="583" y="565" as="targetPoint" />
          </mxGeometry>
        </mxCell>
        <mxCell id="swYCqQo6pgyoW7QARMYc-14" value="" style="endArrow=classic;html=1;rounded=0;exitX=0.5;exitY=1;exitDx=0;exitDy=0;entryX=0.5;entryY=0;entryDx=0;entryDy=0;" edge="1" parent="swYCqQo6pgyoW7QARMYc-1" source="swYCqQo6pgyoW7QARMYc-9" target="swYCqQo6pgyoW7QARMYc-10">
          <mxGeometry width="50" height="50" relative="1" as="geometry">
            <mxPoint x="445" y="405.00000000000006" as="sourcePoint" />
            <mxPoint x="395" y="355" as="targetPoint" />
          </mxGeometry>
        </mxCell>
        <mxCell id="swYCqQo6pgyoW7QARMYc-15" value="0" style="text;html=1;align=center;verticalAlign=middle;resizable=0;points=[];autosize=1;strokeColor=none;fillColor=none;strokeWidth=1;fontSize=16;" vertex="1" parent="swYCqQo6pgyoW7QARMYc-1">
          <mxGeometry x="40" y="400" width="30" height="30" as="geometry" />
        </mxCell>
        <mxCell id="swYCqQo6pgyoW7QARMYc-16" value="1" style="text;html=1;align=center;verticalAlign=middle;resizable=0;points=[];autosize=1;strokeColor=none;fillColor=none;strokeWidth=1;fontSize=16;" vertex="1" parent="swYCqQo6pgyoW7QARMYc-1">
          <mxGeometry x="155" y="400" width="30" height="30" as="geometry" />
        </mxCell>
        <mxCell id="swYCqQo6pgyoW7QARMYc-17" value="2" style="text;html=1;align=center;verticalAlign=middle;resizable=0;points=[];autosize=1;strokeColor=none;fillColor=none;strokeWidth=1;fontSize=16;" vertex="1" parent="swYCqQo6pgyoW7QARMYc-1">
          <mxGeometry x="258" y="400" width="30" height="30" as="geometry" />
        </mxCell>
        <mxCell id="swYCqQo6pgyoW7QARMYc-18" value="2" style="text;html=1;align=center;verticalAlign=middle;resizable=0;points=[];autosize=1;strokeColor=none;fillColor=none;strokeWidth=1;fontSize=16;" vertex="1" parent="swYCqQo6pgyoW7QARMYc-1">
          <mxGeometry x="258" y="590" width="30" height="30" as="geometry" />
        </mxCell>
        <mxCell id="swYCqQo6pgyoW7QARMYc-19" value="3" style="text;html=1;align=center;verticalAlign=middle;resizable=0;points=[];autosize=1;strokeColor=none;fillColor=none;strokeWidth=1;fontSize=16;" vertex="1" parent="swYCqQo6pgyoW7QARMYc-1">
          <mxGeometry x="370" y="590" width="30" height="30" as="geometry" />
        </mxCell>
        <mxCell id="swYCqQo6pgyoW7QARMYc-20" value="4" style="text;html=1;align=center;verticalAlign=middle;resizable=0;points=[];autosize=1;strokeColor=none;fillColor=none;strokeWidth=1;fontSize=16;" vertex="1" parent="swYCqQo6pgyoW7QARMYc-1">
          <mxGeometry x="478" y="590" width="30" height="30" as="geometry" />
        </mxCell>
        <mxCell id="swYCqQo6pgyoW7QARMYc-21" value="" style="endArrow=none;html=1;rounded=0;fillColor=#d80073;strokeColor=#A50040;strokeWidth=3;" edge="1" parent="swYCqQo6pgyoW7QARMYc-1">
          <mxGeometry width="50" height="50" relative="1" as="geometry">
            <mxPoint y="620" as="sourcePoint" />
            <mxPoint y="520" as="targetPoint" />
          </mxGeometry>
        </mxCell>
        <mxCell id="swYCqQo6pgyoW7QARMYc-22" value="" style="endArrow=none;html=1;rounded=0;fillColor=#d80073;strokeColor=#A50040;strokeWidth=3;" edge="1" parent="swYCqQo6pgyoW7QARMYc-1">
          <mxGeometry width="50" height="50" relative="1" as="geometry">
            <mxPoint y="510" as="sourcePoint" />
            <mxPoint y="410" as="targetPoint" />
          </mxGeometry>
        </mxCell>
        <mxCell id="swYCqQo6pgyoW7QARMYc-23" value="" style="endArrow=none;html=1;rounded=0;fillColor=#d80073;strokeColor=#A50040;strokeWidth=3;" edge="1" parent="swYCqQo6pgyoW7QARMYc-1">
          <mxGeometry width="50" height="50" relative="1" as="geometry">
            <mxPoint x="550" y="509" as="sourcePoint" />
            <mxPoint x="550" y="409" as="targetPoint" />
          </mxGeometry>
        </mxCell>
        <mxCell id="swYCqQo6pgyoW7QARMYc-24" value="" style="endArrow=none;html=1;rounded=0;fillColor=#d80073;strokeColor=#A50040;strokeWidth=3;" edge="1" parent="swYCqQo6pgyoW7QARMYc-1">
          <mxGeometry width="50" height="50" relative="1" as="geometry">
            <mxPoint x="550" y="620" as="sourcePoint" />
            <mxPoint x="550" y="520" as="targetPoint" />
          </mxGeometry>
        </mxCell>
        <mxCell id="swYCqQo6pgyoW7QARMYc-25" style="edgeStyle=orthogonalEdgeStyle;rounded=0;orthogonalLoop=1;jettySize=auto;html=1;exitX=0;exitY=0;exitDx=0;exitDy=0;curved=1;" edge="1" parent="swYCqQo6pgyoW7QARMYc-1" source="swYCqQo6pgyoW7QARMYc-26" target="swYCqQo6pgyoW7QARMYc-64">
          <mxGeometry relative="1" as="geometry">
            <Array as="points">
              <mxPoint x="20" y="579" />
            </Array>
          </mxGeometry>
        </mxCell>
        <mxCell id="swYCqQo6pgyoW7QARMYc-26" value="" style="ellipse;whiteSpace=wrap;html=1;aspect=fixed;rotation=-90;fillColor=#dae8fc;strokeColor=#6c8ebf;" vertex="1" parent="swYCqQo6pgyoW7QARMYc-1">
          <mxGeometry x="35" y="545" width="40" height="40" as="geometry" />
        </mxCell>
        <mxCell id="swYCqQo6pgyoW7QARMYc-27" value="" style="ellipse;whiteSpace=wrap;html=1;aspect=fixed;rotation=-90;fillColor=#dae8fc;strokeColor=#6c8ebf;" vertex="1" parent="swYCqQo6pgyoW7QARMYc-1">
          <mxGeometry x="145" y="545" width="40" height="40" as="geometry" />
        </mxCell>
        <mxCell id="swYCqQo6pgyoW7QARMYc-28" value="" style="endArrow=classic;html=1;rounded=0;exitX=0.5;exitY=1;exitDx=0;exitDy=0;entryX=0.5;entryY=0;entryDx=0;entryDy=0;" edge="1" parent="swYCqQo6pgyoW7QARMYc-1" source="swYCqQo6pgyoW7QARMYc-26" target="swYCqQo6pgyoW7QARMYc-27">
          <mxGeometry width="50" height="50" relative="1" as="geometry">
            <mxPoint x="225" y="405" as="sourcePoint" />
            <mxPoint x="175" y="355" as="targetPoint" />
          </mxGeometry>
        </mxCell>
        <mxCell id="swYCqQo6pgyoW7QARMYc-29" value="0" style="text;html=1;align=center;verticalAlign=middle;resizable=0;points=[];autosize=1;strokeColor=none;fillColor=none;strokeWidth=1;fontSize=16;" vertex="1" parent="swYCqQo6pgyoW7QARMYc-1">
          <mxGeometry x="40" y="590" width="30" height="30" as="geometry" />
        </mxCell>
        <mxCell id="swYCqQo6pgyoW7QARMYc-30" value="1" style="text;html=1;align=center;verticalAlign=middle;resizable=0;points=[];autosize=1;strokeColor=none;fillColor=none;strokeWidth=1;fontSize=16;" vertex="1" parent="swYCqQo6pgyoW7QARMYc-1">
          <mxGeometry x="150" y="590" width="30" height="30" as="geometry" />
        </mxCell>
        <mxCell id="swYCqQo6pgyoW7QARMYc-31" style="edgeStyle=orthogonalEdgeStyle;rounded=0;orthogonalLoop=1;jettySize=auto;html=1;exitX=0.5;exitY=1;exitDx=0;exitDy=0;entryX=0.5;entryY=0;entryDx=0;entryDy=0;" edge="1" parent="swYCqQo6pgyoW7QARMYc-1" source="swYCqQo6pgyoW7QARMYc-27">
          <mxGeometry relative="1" as="geometry">
            <mxPoint x="253" y="565" as="targetPoint" />
          </mxGeometry>
        </mxCell>
        <mxCell id="swYCqQo6pgyoW7QARMYc-32" value="?" style="text;html=1;align=center;verticalAlign=middle;resizable=0;points=[];autosize=1;strokeColor=none;fillColor=none;" vertex="1" parent="swYCqQo6pgyoW7QARMYc-1">
          <mxGeometry x="90" y="538" width="30" height="30" as="geometry" />
        </mxCell>
        <mxCell id="swYCqQo6pgyoW7QARMYc-33" value="?" style="text;html=1;align=center;verticalAlign=middle;resizable=0;points=[];autosize=1;strokeColor=none;fillColor=none;" vertex="1" parent="swYCqQo6pgyoW7QARMYc-1">
          <mxGeometry x="200" y="538" width="30" height="30" as="geometry" />
        </mxCell>
        <mxCell id="swYCqQo6pgyoW7QARMYc-34" value="" style="ellipse;whiteSpace=wrap;html=1;aspect=fixed;rotation=-90;fillColor=#dae8fc;strokeColor=#6c8ebf;" vertex="1" parent="swYCqQo6pgyoW7QARMYc-1">
          <mxGeometry x="360" y="445" width="40" height="40" as="geometry" />
        </mxCell>
        <mxCell id="swYCqQo6pgyoW7QARMYc-35" value="" style="ellipse;whiteSpace=wrap;html=1;aspect=fixed;rotation=-90;fillColor=#dae8fc;strokeColor=#6c8ebf;" vertex="1" parent="swYCqQo6pgyoW7QARMYc-1">
          <mxGeometry x="468" y="445" width="40" height="40" as="geometry" />
        </mxCell>
        <mxCell id="swYCqQo6pgyoW7QARMYc-36" style="edgeStyle=orthogonalEdgeStyle;rounded=0;orthogonalLoop=1;jettySize=auto;html=1;exitX=0.5;exitY=1;exitDx=0;exitDy=0;entryX=0.5;entryY=0;entryDx=0;entryDy=0;" edge="1" parent="swYCqQo6pgyoW7QARMYc-1" source="swYCqQo6pgyoW7QARMYc-34" target="swYCqQo6pgyoW7QARMYc-35">
          <mxGeometry relative="1" as="geometry" />
        </mxCell>
        <mxCell id="swYCqQo6pgyoW7QARMYc-37" value="3" style="text;html=1;align=center;verticalAlign=middle;resizable=0;points=[];autosize=1;strokeColor=none;fillColor=none;strokeWidth=1;fontSize=16;" vertex="1" parent="swYCqQo6pgyoW7QARMYc-1">
          <mxGeometry x="365" y="400" width="30" height="30" as="geometry" />
        </mxCell>
        <mxCell id="swYCqQo6pgyoW7QARMYc-38" value="4" style="text;html=1;align=center;verticalAlign=middle;resizable=0;points=[];autosize=1;strokeColor=none;fillColor=none;strokeWidth=1;fontSize=16;" vertex="1" parent="swYCqQo6pgyoW7QARMYc-1">
          <mxGeometry x="478" y="400" width="30" height="30" as="geometry" />
        </mxCell>
        <mxCell id="swYCqQo6pgyoW7QARMYc-39" style="edgeStyle=orthogonalEdgeStyle;rounded=0;orthogonalLoop=1;jettySize=auto;html=1;exitX=0.5;exitY=1;exitDx=0;exitDy=0;entryX=0.5;entryY=0;entryDx=0;entryDy=0;" edge="1" parent="swYCqQo6pgyoW7QARMYc-1" source="swYCqQo6pgyoW7QARMYc-35">
          <mxGeometry relative="1" as="geometry">
            <mxPoint x="578" y="465" as="targetPoint" />
          </mxGeometry>
        </mxCell>
        <mxCell id="swYCqQo6pgyoW7QARMYc-40" value="?" style="text;html=1;align=center;verticalAlign=middle;resizable=0;points=[];autosize=1;strokeColor=none;fillColor=none;" vertex="1" parent="swYCqQo6pgyoW7QARMYc-1">
          <mxGeometry x="414" y="430" width="30" height="30" as="geometry" />
        </mxCell>
        <mxCell id="swYCqQo6pgyoW7QARMYc-41" value="?" style="text;html=1;align=center;verticalAlign=middle;resizable=0;points=[];autosize=1;strokeColor=none;fillColor=none;" vertex="1" parent="swYCqQo6pgyoW7QARMYc-1">
          <mxGeometry x="520" y="430" width="30" height="30" as="geometry" />
        </mxCell>
        <mxCell id="swYCqQo6pgyoW7QARMYc-42" style="edgeStyle=orthogonalEdgeStyle;rounded=0;orthogonalLoop=1;jettySize=auto;html=1;exitX=0.5;exitY=1;exitDx=0;exitDy=0;entryX=0.5;entryY=0;entryDx=0;entryDy=0;" edge="1" parent="swYCqQo6pgyoW7QARMYc-1">
          <mxGeometry relative="1" as="geometry">
            <mxPoint x="-33" y="564.86" as="sourcePoint" />
            <mxPoint x="35" y="564.86" as="targetPoint" />
          </mxGeometry>
        </mxCell>
        <mxCell id="swYCqQo6pgyoW7QARMYc-43" style="edgeStyle=orthogonalEdgeStyle;rounded=0;orthogonalLoop=1;jettySize=auto;html=1;exitX=0.5;exitY=1;exitDx=0;exitDy=0;entryX=0.5;entryY=0;entryDx=0;entryDy=0;" edge="1" parent="swYCqQo6pgyoW7QARMYc-1">
          <mxGeometry relative="1" as="geometry">
            <mxPoint x="-33" y="464.86" as="sourcePoint" />
            <mxPoint x="35" y="464.86" as="targetPoint" />
          </mxGeometry>
        </mxCell>
        <mxCell id="swYCqQo6pgyoW7QARMYc-44" style="edgeStyle=orthogonalEdgeStyle;rounded=0;orthogonalLoop=1;jettySize=auto;html=1;" edge="1" parent="swYCqQo6pgyoW7QARMYc-1" source="swYCqQo6pgyoW7QARMYc-45" target="swYCqQo6pgyoW7QARMYc-47">
          <mxGeometry relative="1" as="geometry" />
        </mxCell>
        <mxCell id="swYCqQo6pgyoW7QARMYc-45" value="" style="ellipse;whiteSpace=wrap;html=1;aspect=fixed;rotation=-90;fillColor=#d5e8d4;strokeColor=#82b366;" vertex="1" parent="swYCqQo6pgyoW7QARMYc-1">
          <mxGeometry y="360" width="40" height="40" as="geometry" />
        </mxCell>
        <mxCell id="swYCqQo6pgyoW7QARMYc-46" style="edgeStyle=orthogonalEdgeStyle;rounded=0;orthogonalLoop=1;jettySize=auto;html=1;" edge="1" parent="swYCqQo6pgyoW7QARMYc-1" source="swYCqQo6pgyoW7QARMYc-47" target="swYCqQo6pgyoW7QARMYc-49">
          <mxGeometry relative="1" as="geometry" />
        </mxCell>
        <mxCell id="swYCqQo6pgyoW7QARMYc-47" value="" style="ellipse;whiteSpace=wrap;html=1;aspect=fixed;rotation=-90;fillColor=#d5e8d4;strokeColor=#82b366;" vertex="1" parent="swYCqQo6pgyoW7QARMYc-1">
          <mxGeometry y="270" width="40" height="40" as="geometry" />
        </mxCell>
        <mxCell id="swYCqQo6pgyoW7QARMYc-48" style="edgeStyle=orthogonalEdgeStyle;rounded=0;orthogonalLoop=1;jettySize=auto;html=1;" edge="1" parent="swYCqQo6pgyoW7QARMYc-1" source="swYCqQo6pgyoW7QARMYc-49" target="swYCqQo6pgyoW7QARMYc-51">
          <mxGeometry relative="1" as="geometry" />
        </mxCell>
        <mxCell id="swYCqQo6pgyoW7QARMYc-49" value="" style="ellipse;whiteSpace=wrap;html=1;aspect=fixed;rotation=-90;fillColor=#d5e8d4;strokeColor=#82b366;" vertex="1" parent="swYCqQo6pgyoW7QARMYc-1">
          <mxGeometry x="90" y="270" width="40" height="40" as="geometry" />
        </mxCell>
        <mxCell id="swYCqQo6pgyoW7QARMYc-50" style="edgeStyle=orthogonalEdgeStyle;rounded=0;orthogonalLoop=1;jettySize=auto;html=1;entryX=1;entryY=1;entryDx=0;entryDy=0;curved=1;" edge="1" parent="swYCqQo6pgyoW7QARMYc-1" source="swYCqQo6pgyoW7QARMYc-51" target="swYCqQo6pgyoW7QARMYc-3">
          <mxGeometry relative="1" as="geometry">
            <Array as="points">
              <mxPoint x="110" y="450" />
              <mxPoint x="69" y="450" />
            </Array>
          </mxGeometry>
        </mxCell>
        <mxCell id="swYCqQo6pgyoW7QARMYc-51" value="" style="ellipse;whiteSpace=wrap;html=1;aspect=fixed;rotation=-90;fillColor=#d5e8d4;strokeColor=#82b366;" vertex="1" parent="swYCqQo6pgyoW7QARMYc-1">
          <mxGeometry x="90" y="360" width="40" height="40" as="geometry" />
        </mxCell>
        <mxCell id="swYCqQo6pgyoW7QARMYc-52" value="1" style="text;html=1;align=center;verticalAlign=middle;resizable=0;points=[];autosize=1;strokeColor=none;fillColor=none;strokeWidth=1;fontSize=16;" vertex="1" parent="swYCqQo6pgyoW7QARMYc-1">
          <mxGeometry x="-40" y="365" width="30" height="30" as="geometry" />
        </mxCell>
        <mxCell id="swYCqQo6pgyoW7QARMYc-53" value="2" style="text;html=1;align=center;verticalAlign=middle;resizable=0;points=[];autosize=1;strokeColor=none;fillColor=none;strokeWidth=1;fontSize=16;" vertex="1" parent="swYCqQo6pgyoW7QARMYc-1">
          <mxGeometry x="-40" y="275" width="30" height="30" as="geometry" />
        </mxCell>
        <mxCell id="swYCqQo6pgyoW7QARMYc-54" value="3" style="text;html=1;align=center;verticalAlign=middle;resizable=0;points=[];autosize=1;strokeColor=none;fillColor=none;strokeWidth=1;fontSize=16;" vertex="1" parent="swYCqQo6pgyoW7QARMYc-1">
          <mxGeometry x="140" y="275" width="30" height="30" as="geometry" />
        </mxCell>
        <mxCell id="swYCqQo6pgyoW7QARMYc-55" value="4" style="text;html=1;align=center;verticalAlign=middle;resizable=0;points=[];autosize=1;strokeColor=none;fillColor=none;strokeWidth=1;fontSize=16;" vertex="1" parent="swYCqQo6pgyoW7QARMYc-1">
          <mxGeometry x="140" y="365" width="30" height="30" as="geometry" />
        </mxCell>
        <mxCell id="swYCqQo6pgyoW7QARMYc-56" value="$$\epsilon$$" style="text;html=1;align=center;verticalAlign=middle;resizable=0;points=[];autosize=1;strokeColor=none;fillColor=none;" vertex="1" parent="swYCqQo6pgyoW7QARMYc-1">
          <mxGeometry x="-34" y="415" width="90" height="30" as="geometry" />
        </mxCell>
        <mxCell id="swYCqQo6pgyoW7QARMYc-57" value="$$\epsilon$$" style="text;html=1;align=center;verticalAlign=middle;resizable=0;points=[];autosize=1;strokeColor=none;fillColor=none;" vertex="1" parent="swYCqQo6pgyoW7QARMYc-1">
          <mxGeometry x="-40" y="320" width="90" height="30" as="geometry" />
        </mxCell>
        <mxCell id="swYCqQo6pgyoW7QARMYc-58" value="$$\epsilon$$" style="text;html=1;align=center;verticalAlign=middle;resizable=0;points=[];autosize=1;strokeColor=none;fillColor=none;" vertex="1" parent="swYCqQo6pgyoW7QARMYc-1">
          <mxGeometry x="20" y="260" width="90" height="30" as="geometry" />
        </mxCell>
        <mxCell id="swYCqQo6pgyoW7QARMYc-59" value="?" style="text;html=1;align=center;verticalAlign=middle;resizable=0;points=[];autosize=1;strokeColor=none;fillColor=none;" vertex="1" parent="swYCqQo6pgyoW7QARMYc-1">
          <mxGeometry x="110" y="320" width="30" height="30" as="geometry" />
        </mxCell>
        <mxCell id="swYCqQo6pgyoW7QARMYc-60" value="?" style="text;html=1;align=center;verticalAlign=middle;resizable=0;points=[];autosize=1;strokeColor=none;fillColor=none;" vertex="1" parent="swYCqQo6pgyoW7QARMYc-1">
          <mxGeometry x="105" y="415" width="30" height="30" as="geometry" />
        </mxCell>
        <mxCell id="swYCqQo6pgyoW7QARMYc-61" style="edgeStyle=orthogonalEdgeStyle;rounded=0;orthogonalLoop=1;jettySize=auto;html=1;" edge="1" parent="swYCqQo6pgyoW7QARMYc-1" source="swYCqQo6pgyoW7QARMYc-62" target="swYCqQo6pgyoW7QARMYc-68">
          <mxGeometry relative="1" as="geometry" />
        </mxCell>
        <mxCell id="swYCqQo6pgyoW7QARMYc-62" value="" style="ellipse;whiteSpace=wrap;html=1;aspect=fixed;rotation=-90;fillColor=#d5e8d4;strokeColor=#82b366;" vertex="1" parent="swYCqQo6pgyoW7QARMYc-1">
          <mxGeometry y="711" width="40" height="40" as="geometry" />
        </mxCell>
        <mxCell id="swYCqQo6pgyoW7QARMYc-63" style="edgeStyle=orthogonalEdgeStyle;rounded=0;orthogonalLoop=1;jettySize=auto;html=1;" edge="1" parent="swYCqQo6pgyoW7QARMYc-1" source="swYCqQo6pgyoW7QARMYc-64" target="swYCqQo6pgyoW7QARMYc-62">
          <mxGeometry relative="1" as="geometry" />
        </mxCell>
        <mxCell id="swYCqQo6pgyoW7QARMYc-64" value="" style="ellipse;whiteSpace=wrap;html=1;aspect=fixed;rotation=-90;fillColor=#d5e8d4;strokeColor=#82b366;" vertex="1" parent="swYCqQo6pgyoW7QARMYc-1">
          <mxGeometry y="621" width="40" height="40" as="geometry" />
        </mxCell>
        <mxCell id="swYCqQo6pgyoW7QARMYc-65" style="edgeStyle=orthogonalEdgeStyle;rounded=0;orthogonalLoop=1;jettySize=auto;html=1;entryX=0;entryY=1;entryDx=0;entryDy=0;curved=1;exitX=1;exitY=0.5;exitDx=0;exitDy=0;" edge="1" parent="swYCqQo6pgyoW7QARMYc-1" source="swYCqQo6pgyoW7QARMYc-66" target="swYCqQo6pgyoW7QARMYc-26">
          <mxGeometry relative="1" as="geometry">
            <Array as="points">
              <mxPoint x="110" y="579" />
            </Array>
          </mxGeometry>
        </mxCell>
        <mxCell id="swYCqQo6pgyoW7QARMYc-66" value="" style="ellipse;whiteSpace=wrap;html=1;aspect=fixed;rotation=-90;fillColor=#d5e8d4;strokeColor=#82b366;" vertex="1" parent="swYCqQo6pgyoW7QARMYc-1">
          <mxGeometry x="90" y="621" width="40" height="40" as="geometry" />
        </mxCell>
        <mxCell id="swYCqQo6pgyoW7QARMYc-67" style="edgeStyle=orthogonalEdgeStyle;rounded=0;orthogonalLoop=1;jettySize=auto;html=1;" edge="1" parent="swYCqQo6pgyoW7QARMYc-1" source="swYCqQo6pgyoW7QARMYc-68" target="swYCqQo6pgyoW7QARMYc-66">
          <mxGeometry relative="1" as="geometry" />
        </mxCell>
        <mxCell id="swYCqQo6pgyoW7QARMYc-68" value="" style="ellipse;whiteSpace=wrap;html=1;aspect=fixed;rotation=-90;fillColor=#d5e8d4;strokeColor=#82b366;" vertex="1" parent="swYCqQo6pgyoW7QARMYc-1">
          <mxGeometry x="90" y="711" width="40" height="40" as="geometry" />
        </mxCell>
        <mxCell id="swYCqQo6pgyoW7QARMYc-69" value="2" style="text;html=1;align=center;verticalAlign=middle;resizable=0;points=[];autosize=1;strokeColor=none;fillColor=none;strokeWidth=1;fontSize=16;" vertex="1" parent="swYCqQo6pgyoW7QARMYc-1">
          <mxGeometry x="-40" y="716" width="30" height="30" as="geometry" />
        </mxCell>
        <mxCell id="swYCqQo6pgyoW7QARMYc-70" value="1" style="text;html=1;align=center;verticalAlign=middle;resizable=0;points=[];autosize=1;strokeColor=none;fillColor=none;strokeWidth=1;fontSize=16;" vertex="1" parent="swYCqQo6pgyoW7QARMYc-1">
          <mxGeometry x="-40" y="626" width="30" height="30" as="geometry" />
        </mxCell>
        <mxCell id="swYCqQo6pgyoW7QARMYc-71" value="?" style="text;html=1;align=center;verticalAlign=middle;resizable=0;points=[];autosize=1;strokeColor=none;fillColor=none;" vertex="1" parent="swYCqQo6pgyoW7QARMYc-1">
          <mxGeometry x="-4" y="580" width="30" height="30" as="geometry" />
        </mxCell>
        <mxCell id="swYCqQo6pgyoW7QARMYc-72" value="$$\epsilon$$" style="text;html=1;align=center;verticalAlign=middle;resizable=0;points=[];autosize=1;strokeColor=none;fillColor=none;" vertex="1" parent="swYCqQo6pgyoW7QARMYc-1">
          <mxGeometry x="80" y="671" width="90" height="30" as="geometry" />
        </mxCell>
        <mxCell id="swYCqQo6pgyoW7QARMYc-73" value="4" style="text;html=1;align=center;verticalAlign=middle;resizable=0;points=[];autosize=1;strokeColor=none;fillColor=none;strokeWidth=1;fontSize=16;" vertex="1" parent="swYCqQo6pgyoW7QARMYc-1">
          <mxGeometry x="140" y="626" width="30" height="30" as="geometry" />
        </mxCell>
        <mxCell id="swYCqQo6pgyoW7QARMYc-74" value="3" style="text;html=1;align=center;verticalAlign=middle;resizable=0;points=[];autosize=1;strokeColor=none;fillColor=none;strokeWidth=1;fontSize=16;" vertex="1" parent="swYCqQo6pgyoW7QARMYc-1">
          <mxGeometry x="140" y="716" width="30" height="30" as="geometry" />
        </mxCell>
        <mxCell id="swYCqQo6pgyoW7QARMYc-75" value="?" style="text;html=1;align=center;verticalAlign=middle;resizable=0;points=[];autosize=1;strokeColor=none;fillColor=none;" vertex="1" parent="swYCqQo6pgyoW7QARMYc-1">
          <mxGeometry x="-10" y="671" width="30" height="30" as="geometry" />
        </mxCell>
        <mxCell id="swYCqQo6pgyoW7QARMYc-76" value="$$\epsilon$$" style="text;html=1;align=center;verticalAlign=middle;resizable=0;points=[];autosize=1;strokeColor=none;fillColor=none;" vertex="1" parent="swYCqQo6pgyoW7QARMYc-1">
          <mxGeometry x="75" y="580" width="90" height="30" as="geometry" />
        </mxCell>
        <mxCell id="swYCqQo6pgyoW7QARMYc-77" value="$$\epsilon$$" style="text;html=1;align=center;verticalAlign=middle;resizable=0;points=[];autosize=1;strokeColor=none;fillColor=none;" vertex="1" parent="swYCqQo6pgyoW7QARMYc-1">
          <mxGeometry x="15" y="740" width="90" height="30" as="geometry" />
        </mxCell>
      </root>
    </mxGraphModel>
  </diagram>
  <diagram name="composition_nfts_extension_final" id="QYDzTJA4SRsgl0PHU111">
    <mxGraphModel dx="1589" dy="456" grid="1" gridSize="10" guides="1" tooltips="1" connect="1" arrows="1" fold="1" page="1" pageScale="1" pageWidth="827" pageHeight="1169" math="1" shadow="0">
      <root>
        <mxCell id="b0fak_zeEQOe4gxX43zQ-0" />
        <mxCell id="b0fak_zeEQOe4gxX43zQ-1" parent="b0fak_zeEQOe4gxX43zQ-0" />
        <mxCell id="b0fak_zeEQOe4gxX43zQ-2" value="" style="ellipse;whiteSpace=wrap;html=1;aspect=fixed;rotation=-90;" vertex="1" parent="b0fak_zeEQOe4gxX43zQ-1">
          <mxGeometry x="35" y="445" width="40" height="40" as="geometry" />
        </mxCell>
        <mxCell id="b0fak_zeEQOe4gxX43zQ-3" value="" style="ellipse;whiteSpace=wrap;html=1;aspect=fixed;rotation=-90;" vertex="1" parent="b0fak_zeEQOe4gxX43zQ-1">
          <mxGeometry x="150" y="445" width="40" height="40" as="geometry" />
        </mxCell>
        <mxCell id="b0fak_zeEQOe4gxX43zQ-5" style="edgeStyle=orthogonalEdgeStyle;rounded=0;orthogonalLoop=1;jettySize=auto;html=1;exitX=0.5;exitY=1;exitDx=0;exitDy=0;entryX=0.5;entryY=0;entryDx=0;entryDy=0;" edge="1" parent="b0fak_zeEQOe4gxX43zQ-1" source="b0fak_zeEQOe4gxX43zQ-3">
          <mxGeometry relative="1" as="geometry">
            <mxPoint x="253" y="465" as="targetPoint" />
          </mxGeometry>
        </mxCell>
        <mxCell id="b0fak_zeEQOe4gxX43zQ-7" value="" style="endArrow=classic;html=1;rounded=0;exitX=0.5;exitY=1;exitDx=0;exitDy=0;entryX=0.5;entryY=0;entryDx=0;entryDy=0;" edge="1" parent="b0fak_zeEQOe4gxX43zQ-1" source="b0fak_zeEQOe4gxX43zQ-2" target="b0fak_zeEQOe4gxX43zQ-3">
          <mxGeometry width="50" height="50" relative="1" as="geometry">
            <mxPoint x="225" y="305" as="sourcePoint" />
            <mxPoint x="175" y="255" as="targetPoint" />
          </mxGeometry>
        </mxCell>
        <mxCell id="b0fak_zeEQOe4gxX43zQ-9" value="" style="ellipse;whiteSpace=wrap;html=1;aspect=fixed;rotation=-90;" vertex="1" parent="b0fak_zeEQOe4gxX43zQ-1">
          <mxGeometry x="253" y="445" width="40" height="40" as="geometry" />
        </mxCell>
        <mxCell id="b0fak_zeEQOe4gxX43zQ-10" value="" style="ellipse;whiteSpace=wrap;html=1;aspect=fixed;rotation=-90;" vertex="1" parent="b0fak_zeEQOe4gxX43zQ-1">
          <mxGeometry x="361" y="445" width="40" height="40" as="geometry" />
        </mxCell>
        <mxCell id="b0fak_zeEQOe4gxX43zQ-11" style="edgeStyle=orthogonalEdgeStyle;rounded=0;orthogonalLoop=1;jettySize=auto;html=1;exitX=0.5;exitY=1;exitDx=0;exitDy=0;entryX=0.5;entryY=0;entryDx=0;entryDy=0;" edge="1" parent="b0fak_zeEQOe4gxX43zQ-1" source="b0fak_zeEQOe4gxX43zQ-9" target="b0fak_zeEQOe4gxX43zQ-10">
          <mxGeometry relative="1" as="geometry" />
        </mxCell>
        <mxCell id="b0fak_zeEQOe4gxX43zQ-12" style="edgeStyle=orthogonalEdgeStyle;rounded=0;orthogonalLoop=1;jettySize=auto;html=1;exitX=0.5;exitY=1;exitDx=0;exitDy=0;entryX=0.5;entryY=0;entryDx=0;entryDy=0;" edge="1" parent="b0fak_zeEQOe4gxX43zQ-1" source="b0fak_zeEQOe4gxX43zQ-10">
          <mxGeometry relative="1" as="geometry">
            <mxPoint x="471" y="465" as="targetPoint" />
          </mxGeometry>
        </mxCell>
        <mxCell id="b0fak_zeEQOe4gxX43zQ-14" value="0" style="text;html=1;align=center;verticalAlign=middle;resizable=0;points=[];autosize=1;strokeColor=none;fillColor=none;strokeWidth=1;fontSize=16;" vertex="1" parent="b0fak_zeEQOe4gxX43zQ-1">
          <mxGeometry x="40" y="400" width="30" height="30" as="geometry" />
        </mxCell>
        <mxCell id="b0fak_zeEQOe4gxX43zQ-15" value="1" style="text;html=1;align=center;verticalAlign=middle;resizable=0;points=[];autosize=1;strokeColor=none;fillColor=none;strokeWidth=1;fontSize=16;" vertex="1" parent="b0fak_zeEQOe4gxX43zQ-1">
          <mxGeometry x="155" y="400" width="30" height="30" as="geometry" />
        </mxCell>
        <mxCell id="b0fak_zeEQOe4gxX43zQ-18" value="3" style="text;html=1;align=center;verticalAlign=middle;resizable=0;points=[];autosize=1;strokeColor=none;fillColor=none;strokeWidth=1;fontSize=16;" vertex="1" parent="b0fak_zeEQOe4gxX43zQ-1">
          <mxGeometry x="258" y="400" width="30" height="30" as="geometry" />
        </mxCell>
        <mxCell id="b0fak_zeEQOe4gxX43zQ-19" value="4" style="text;html=1;align=center;verticalAlign=middle;resizable=0;points=[];autosize=1;strokeColor=none;fillColor=none;strokeWidth=1;fontSize=16;" vertex="1" parent="b0fak_zeEQOe4gxX43zQ-1">
          <mxGeometry x="366" y="400" width="30" height="30" as="geometry" />
        </mxCell>
        <mxCell id="b0fak_zeEQOe4gxX43zQ-21" value="" style="endArrow=none;html=1;rounded=0;fillColor=#d80073;strokeColor=#A50040;strokeWidth=3;" edge="1" parent="b0fak_zeEQOe4gxX43zQ-1">
          <mxGeometry width="50" height="50" relative="1" as="geometry">
            <mxPoint y="510" as="sourcePoint" />
            <mxPoint y="410" as="targetPoint" />
          </mxGeometry>
        </mxCell>
        <mxCell id="b0fak_zeEQOe4gxX43zQ-23" value="" style="endArrow=none;html=1;rounded=0;fillColor=#d80073;strokeColor=#A50040;strokeWidth=3;" edge="1" parent="b0fak_zeEQOe4gxX43zQ-1">
          <mxGeometry width="50" height="50" relative="1" as="geometry">
            <mxPoint x="438" y="510" as="sourcePoint" />
            <mxPoint x="438" y="410" as="targetPoint" />
          </mxGeometry>
        </mxCell>
        <mxCell id="b0fak_zeEQOe4gxX43zQ-41" style="edgeStyle=orthogonalEdgeStyle;rounded=0;orthogonalLoop=1;jettySize=auto;html=1;exitX=0.5;exitY=1;exitDx=0;exitDy=0;entryX=0.5;entryY=0;entryDx=0;entryDy=0;" edge="1" parent="b0fak_zeEQOe4gxX43zQ-1">
          <mxGeometry relative="1" as="geometry">
            <mxPoint x="-33" y="464.86" as="sourcePoint" />
            <mxPoint x="35" y="464.86" as="targetPoint" />
          </mxGeometry>
        </mxCell>
        <mxCell id="23LrQgtBjkyjUSLQ9u_q-0" value="0" style="text;html=1;align=center;verticalAlign=middle;resizable=0;points=[];autosize=1;strokeColor=none;fillColor=none;strokeWidth=1;fontSize=16;" vertex="1" parent="b0fak_zeEQOe4gxX43zQ-1">
          <mxGeometry x="40" y="490" width="30" height="30" as="geometry" />
        </mxCell>
        <mxCell id="23LrQgtBjkyjUSLQ9u_q-1" value="1" style="text;html=1;align=center;verticalAlign=middle;resizable=0;points=[];autosize=1;strokeColor=none;fillColor=none;strokeWidth=1;fontSize=16;" vertex="1" parent="b0fak_zeEQOe4gxX43zQ-1">
          <mxGeometry x="155" y="490" width="30" height="30" as="geometry" />
        </mxCell>
        <mxCell id="23LrQgtBjkyjUSLQ9u_q-2" value="2" style="text;html=1;align=center;verticalAlign=middle;resizable=0;points=[];autosize=1;strokeColor=none;fillColor=none;strokeWidth=1;fontSize=16;" vertex="1" parent="b0fak_zeEQOe4gxX43zQ-1">
          <mxGeometry x="258" y="490" width="30" height="30" as="geometry" />
        </mxCell>
        <mxCell id="23LrQgtBjkyjUSLQ9u_q-3" value="3" style="text;html=1;align=center;verticalAlign=middle;resizable=0;points=[];autosize=1;strokeColor=none;fillColor=none;strokeWidth=1;fontSize=16;" vertex="1" parent="b0fak_zeEQOe4gxX43zQ-1">
          <mxGeometry x="366" y="490" width="30" height="30" as="geometry" />
        </mxCell>
      </root>
    </mxGraphModel>
  </diagram>
  <diagram id="CRR_dL1V7w0LGpf1ieH1" name="Page-2">
    <mxGraphModel dx="1633" dy="985" grid="1" gridSize="10" guides="1" tooltips="1" connect="1" arrows="1" fold="1" page="1" pageScale="1" pageWidth="827" pageHeight="1169" math="1" shadow="0">
      <root>
        <mxCell id="0" />
        <mxCell id="1" parent="0" />
        <mxCell id="ObQ2m46722zuNKhQEOMJ-8" style="edgeStyle=orthogonalEdgeStyle;rounded=0;orthogonalLoop=1;jettySize=auto;html=1;entryX=0.5;entryY=0;entryDx=0;entryDy=0;" parent="1" source="ObQ2m46722zuNKhQEOMJ-28" target="ObQ2m46722zuNKhQEOMJ-7" edge="1">
          <mxGeometry relative="1" as="geometry">
            <mxPoint x="260" y="350" as="sourcePoint" />
          </mxGeometry>
        </mxCell>
        <mxCell id="ObQ2m46722zuNKhQEOMJ-12" style="edgeStyle=orthogonalEdgeStyle;rounded=0;orthogonalLoop=1;jettySize=auto;html=1;" parent="1" target="ObQ2m46722zuNKhQEOMJ-28" edge="1">
          <mxGeometry relative="1" as="geometry">
            <mxPoint x="220" y="350" as="targetPoint" />
            <mxPoint x="160" y="350" as="sourcePoint" />
          </mxGeometry>
        </mxCell>
        <mxCell id="ObQ2m46722zuNKhQEOMJ-11" style="edgeStyle=orthogonalEdgeStyle;rounded=0;orthogonalLoop=1;jettySize=auto;html=1;curved=1;" parent="1" source="ObQ2m46722zuNKhQEOMJ-5" target="ObQ2m46722zuNKhQEOMJ-28" edge="1">
          <mxGeometry relative="1" as="geometry">
            <mxPoint x="240" y="370" as="targetPoint" />
          </mxGeometry>
        </mxCell>
        <mxCell id="ObQ2m46722zuNKhQEOMJ-5" value="" style="ellipse;whiteSpace=wrap;html=1;aspect=fixed;rotation=-90;" parent="1" vertex="1">
          <mxGeometry x="350" y="455" width="40" height="40" as="geometry" />
        </mxCell>
        <mxCell id="ObQ2m46722zuNKhQEOMJ-10" style="edgeStyle=orthogonalEdgeStyle;rounded=0;orthogonalLoop=1;jettySize=auto;html=1;entryX=0.5;entryY=1;entryDx=0;entryDy=0;curved=1;" parent="1" source="ObQ2m46722zuNKhQEOMJ-6" target="ObQ2m46722zuNKhQEOMJ-5" edge="1">
          <mxGeometry relative="1" as="geometry">
            <Array as="points">
              <mxPoint x="480" y="475" />
            </Array>
          </mxGeometry>
        </mxCell>
        <mxCell id="ObQ2m46722zuNKhQEOMJ-6" value="" style="ellipse;whiteSpace=wrap;html=1;aspect=fixed;rotation=-90;" parent="1" vertex="1">
          <mxGeometry x="480" y="330" width="40" height="40" as="geometry" />
        </mxCell>
        <mxCell id="ObQ2m46722zuNKhQEOMJ-9" style="edgeStyle=orthogonalEdgeStyle;rounded=0;orthogonalLoop=1;jettySize=auto;html=1;entryX=0.5;entryY=0;entryDx=0;entryDy=0;" parent="1" source="ObQ2m46722zuNKhQEOMJ-7" target="ObQ2m46722zuNKhQEOMJ-6" edge="1">
          <mxGeometry relative="1" as="geometry" />
        </mxCell>
        <mxCell id="ObQ2m46722zuNKhQEOMJ-7" value="" style="ellipse;whiteSpace=wrap;html=1;aspect=fixed;rotation=-90;" parent="1" vertex="1">
          <mxGeometry x="350" y="330" width="40" height="40" as="geometry" />
        </mxCell>
        <mxCell id="ObQ2m46722zuNKhQEOMJ-14" value="$$&lt;br&gt;\begin{bmatrix}&lt;br&gt;a &amp;amp; b&lt;br&gt;\end{bmatrix}&lt;br&gt;$$" style="text;html=1;align=center;verticalAlign=middle;resizable=0;points=[];autosize=1;strokeColor=none;fillColor=none;" parent="1" vertex="1">
          <mxGeometry x="245" y="280" width="110" height="90" as="geometry" />
        </mxCell>
        <mxCell id="ObQ2m46722zuNKhQEOMJ-15" value="$$&lt;br style=&quot;border-color: var(--border-color);&quot;&gt;\begin{bmatrix}&lt;br style=&quot;border-color: var(--border-color);&quot;&gt;\epsilon &amp;amp; c&lt;br style=&quot;border-color: var(--border-color);&quot;&gt;\end{bmatrix}&lt;br style=&quot;border-color: var(--border-color);&quot;&gt;$$" style="text;html=1;align=center;verticalAlign=middle;resizable=0;points=[];autosize=1;strokeColor=none;fillColor=none;" parent="1" vertex="1">
          <mxGeometry x="375" y="280" width="110" height="90" as="geometry" />
        </mxCell>
        <mxCell id="ObQ2m46722zuNKhQEOMJ-16" value="$$&lt;br style=&quot;border-color: var(--border-color);&quot;&gt;\begin{bmatrix}&lt;br style=&quot;border-color: var(--border-color);&quot;&gt;b &amp;amp; \epsilon&lt;br style=&quot;border-color: var(--border-color);&quot;&gt;\end{bmatrix}&lt;br style=&quot;border-color: var(--border-color);&quot;&gt;$$" style="text;html=1;align=center;verticalAlign=middle;resizable=0;points=[];autosize=1;strokeColor=none;fillColor=none;" parent="1" vertex="1">
          <mxGeometry x="390" y="375" width="110" height="90" as="geometry" />
        </mxCell>
        <mxCell id="ObQ2m46722zuNKhQEOMJ-17" value="$$&lt;br style=&quot;border-color: var(--border-color);&quot;&gt;\begin{bmatrix}&lt;br style=&quot;border-color: var(--border-color);&quot;&gt;c &amp;amp; a&lt;br style=&quot;border-color: var(--border-color);&quot;&gt;\end{bmatrix}&lt;br style=&quot;border-color: var(--border-color);&quot;&gt;$$" style="text;html=1;align=center;verticalAlign=middle;resizable=0;points=[];autosize=1;strokeColor=none;fillColor=none;" parent="1" vertex="1">
          <mxGeometry x="240" y="385" width="110" height="90" as="geometry" />
        </mxCell>
        <mxCell id="ObQ2m46722zuNKhQEOMJ-25" value="$$(abc)^*$$" style="text;html=1;align=center;verticalAlign=middle;resizable=0;points=[];autosize=1;strokeColor=none;fillColor=none;" parent="1" vertex="1">
          <mxGeometry x="141" y="232" width="90" height="30" as="geometry" />
        </mxCell>
        <mxCell id="ObQ2m46722zuNKhQEOMJ-26" value="$$&lt;br&gt;\begin{align}&lt;br&gt;&amp;amp;a \rightarrow bc \\&lt;br&gt;&amp;amp;b \rightarrow \epsilon \\&lt;br&gt;&amp;amp;c \rightarrow a&lt;br&gt;\end{align}&lt;br&gt;$$" style="text;html=1;align=center;verticalAlign=middle;resizable=0;points=[];autosize=1;strokeColor=none;fillColor=none;" parent="1" vertex="1">
          <mxGeometry x="111" y="238" width="150" height="110" as="geometry" />
        </mxCell>
        <mxCell id="ObQ2m46722zuNKhQEOMJ-27" value="$$ a \hspace{4mm} b \hspace{2mm} c \hspace{4mm} a \hspace{4mm} b \hspace{2mm} c&lt;br style=&quot;border-color: var(--border-color);&quot;&gt;$$" style="text;html=1;align=left;verticalAlign=middle;resizable=0;points=[];autosize=1;strokeColor=none;fillColor=none;" parent="1" vertex="1">
          <mxGeometry x="280" y="237" width="500" height="40" as="geometry" />
        </mxCell>
        <mxCell id="ObQ2m46722zuNKhQEOMJ-28" value="" style="ellipse;shape=doubleEllipse;whiteSpace=wrap;html=1;aspect=fixed;" parent="1" vertex="1">
          <mxGeometry x="216" y="327.5" width="45" height="45" as="geometry" />
        </mxCell>
        <mxCell id="ObQ2m46722zuNKhQEOMJ-29" value="&lt;div style=&quot;text-align: left;&quot;&gt;&lt;span style=&quot;background-color: initial;&quot;&gt;$$ b \hspace{1mm} c \hspace{4mm}&amp;nbsp; \hspace{2mm} a \hspace{2mm} b \hspace{1mm} c \hspace{7mm} a $$&lt;/span&gt;&lt;/div&gt;" style="text;html=1;align=center;verticalAlign=middle;resizable=0;points=[];autosize=1;strokeColor=none;fillColor=none;" parent="1" vertex="1">
          <mxGeometry x="33" y="269" width="600" height="30" as="geometry" />
        </mxCell>
        <mxCell id="ObQ2m46722zuNKhQEOMJ-30" value="$$\longrightarrow$$" style="text;html=1;align=center;verticalAlign=middle;resizable=0;points=[];autosize=1;strokeColor=none;fillColor=none;" parent="1" vertex="1">
          <mxGeometry x="345" y="242" width="130" height="30" as="geometry" />
        </mxCell>
      </root>
    </mxGraphModel>
  </diagram>
  <diagram id="aTOsYEm9AeJrM6OXvGvc" name="Page-3">
    <mxGraphModel dx="1633" dy="985" grid="1" gridSize="10" guides="1" tooltips="1" connect="1" arrows="1" fold="1" page="1" pageScale="1" pageWidth="827" pageHeight="1169" math="1" shadow="0">
      <root>
        <mxCell id="0" />
        <mxCell id="1" parent="0" />
        <mxCell id="QS1KN_rrgW-oVOui9iB3-1" style="edgeStyle=orthogonalEdgeStyle;rounded=0;orthogonalLoop=1;jettySize=auto;html=1;entryX=0.5;entryY=0;entryDx=0;entryDy=0;" parent="1" source="QS1KN_rrgW-oVOui9iB3-16" target="QS1KN_rrgW-oVOui9iB3-8" edge="1">
          <mxGeometry relative="1" as="geometry">
            <mxPoint x="260" y="350" as="sourcePoint" />
          </mxGeometry>
        </mxCell>
        <mxCell id="QS1KN_rrgW-oVOui9iB3-2" style="edgeStyle=orthogonalEdgeStyle;rounded=0;orthogonalLoop=1;jettySize=auto;html=1;" parent="1" target="QS1KN_rrgW-oVOui9iB3-16" edge="1">
          <mxGeometry relative="1" as="geometry">
            <mxPoint x="220" y="350" as="targetPoint" />
            <mxPoint x="160" y="350" as="sourcePoint" />
          </mxGeometry>
        </mxCell>
        <mxCell id="QS1KN_rrgW-oVOui9iB3-30" style="edgeStyle=orthogonalEdgeStyle;rounded=0;orthogonalLoop=1;jettySize=auto;html=1;" parent="1" source="QS1KN_rrgW-oVOui9iB3-4" target="QS1KN_rrgW-oVOui9iB3-16" edge="1">
          <mxGeometry relative="1" as="geometry" />
        </mxCell>
        <mxCell id="QS1KN_rrgW-oVOui9iB3-4" value="" style="ellipse;whiteSpace=wrap;html=1;aspect=fixed;rotation=-90;" parent="1" vertex="1">
          <mxGeometry x="218.5" y="450" width="40" height="40" as="geometry" />
        </mxCell>
        <mxCell id="QS1KN_rrgW-oVOui9iB3-21" style="edgeStyle=orthogonalEdgeStyle;rounded=0;orthogonalLoop=1;jettySize=auto;html=1;" parent="1" source="QS1KN_rrgW-oVOui9iB3-6" target="QS1KN_rrgW-oVOui9iB3-20" edge="1">
          <mxGeometry relative="1" as="geometry" />
        </mxCell>
        <mxCell id="QS1KN_rrgW-oVOui9iB3-6" value="" style="ellipse;whiteSpace=wrap;html=1;aspect=fixed;rotation=-90;" parent="1" vertex="1">
          <mxGeometry x="480" y="330" width="40" height="40" as="geometry" />
        </mxCell>
        <mxCell id="QS1KN_rrgW-oVOui9iB3-7" style="edgeStyle=orthogonalEdgeStyle;rounded=0;orthogonalLoop=1;jettySize=auto;html=1;entryX=0.5;entryY=0;entryDx=0;entryDy=0;" parent="1" source="QS1KN_rrgW-oVOui9iB3-8" target="QS1KN_rrgW-oVOui9iB3-6" edge="1">
          <mxGeometry relative="1" as="geometry" />
        </mxCell>
        <mxCell id="QS1KN_rrgW-oVOui9iB3-8" value="" style="ellipse;whiteSpace=wrap;html=1;aspect=fixed;rotation=-90;" parent="1" vertex="1">
          <mxGeometry x="350" y="330" width="40" height="40" as="geometry" />
        </mxCell>
        <mxCell id="QS1KN_rrgW-oVOui9iB3-9" value="$$a$$" style="text;html=1;align=center;verticalAlign=middle;resizable=0;points=[];autosize=1;strokeColor=none;fillColor=none;" parent="1" vertex="1">
          <mxGeometry x="270" y="318" width="60" height="30" as="geometry" />
        </mxCell>
        <mxCell id="QS1KN_rrgW-oVOui9iB3-10" value="$$b$$" style="text;html=1;align=center;verticalAlign=middle;resizable=0;points=[];autosize=1;strokeColor=none;fillColor=none;" parent="1" vertex="1">
          <mxGeometry x="400" y="318" width="60" height="30" as="geometry" />
        </mxCell>
        <mxCell id="QS1KN_rrgW-oVOui9iB3-13" value="$$(abc)^*$$" style="text;html=1;align=center;verticalAlign=middle;resizable=0;points=[];autosize=1;strokeColor=none;fillColor=none;" parent="1" vertex="1">
          <mxGeometry x="141" y="206" width="90" height="30" as="geometry" />
        </mxCell>
        <mxCell id="QS1KN_rrgW-oVOui9iB3-14" value="$$&lt;br&gt;\begin{align}&lt;br&gt;&amp;amp;a \rightarrow bc \\&lt;br&gt;&amp;amp;b \rightarrow \epsilon \\&lt;br&gt;&amp;amp;c \rightarrow a&lt;br&gt;\end{align}&lt;br&gt;$$" style="text;html=1;align=center;verticalAlign=middle;resizable=0;points=[];autosize=1;strokeColor=none;fillColor=none;" parent="1" vertex="1">
          <mxGeometry x="111" y="212" width="150" height="110" as="geometry" />
        </mxCell>
        <mxCell id="QS1KN_rrgW-oVOui9iB3-15" value="$$ a \hspace{4mm} b \hspace{2mm} c \hspace{4mm} a \hspace{4mm} b \hspace{2mm} c&lt;br style=&quot;border-color: var(--border-color);&quot;&gt;$$" style="text;html=1;align=left;verticalAlign=middle;resizable=0;points=[];autosize=1;strokeColor=none;fillColor=none;" parent="1" vertex="1">
          <mxGeometry x="280" y="211" width="500" height="40" as="geometry" />
        </mxCell>
        <mxCell id="QS1KN_rrgW-oVOui9iB3-16" value="" style="ellipse;shape=doubleEllipse;whiteSpace=wrap;html=1;aspect=fixed;" parent="1" vertex="1">
          <mxGeometry x="216" y="327.5" width="45" height="45" as="geometry" />
        </mxCell>
        <mxCell id="QS1KN_rrgW-oVOui9iB3-17" value="&lt;div style=&quot;text-align: left;&quot;&gt;&lt;span style=&quot;background-color: initial;&quot;&gt;$$ b \hspace{1mm} c \hspace{4mm}&amp;nbsp; \hspace{2mm} a \hspace{2mm} b \hspace{1mm} c \hspace{7mm} a $$&lt;/span&gt;&lt;/div&gt;" style="text;html=1;align=center;verticalAlign=middle;resizable=0;points=[];autosize=1;strokeColor=none;fillColor=none;" parent="1" vertex="1">
          <mxGeometry x="33" y="243" width="600" height="30" as="geometry" />
        </mxCell>
        <mxCell id="QS1KN_rrgW-oVOui9iB3-18" value="$$\longrightarrow$$" style="text;html=1;align=center;verticalAlign=middle;resizable=0;points=[];autosize=1;strokeColor=none;fillColor=none;" parent="1" vertex="1">
          <mxGeometry x="345" y="217" width="130" height="30" as="geometry" />
        </mxCell>
        <mxCell id="QS1KN_rrgW-oVOui9iB3-27" style="edgeStyle=orthogonalEdgeStyle;rounded=0;orthogonalLoop=1;jettySize=auto;html=1;" parent="1" source="QS1KN_rrgW-oVOui9iB3-19" target="QS1KN_rrgW-oVOui9iB3-25" edge="1">
          <mxGeometry relative="1" as="geometry" />
        </mxCell>
        <mxCell id="QS1KN_rrgW-oVOui9iB3-19" value="" style="ellipse;whiteSpace=wrap;html=1;aspect=fixed;rotation=-90;" parent="1" vertex="1">
          <mxGeometry x="620" y="450" width="40" height="40" as="geometry" />
        </mxCell>
        <mxCell id="QS1KN_rrgW-oVOui9iB3-22" style="edgeStyle=orthogonalEdgeStyle;rounded=0;orthogonalLoop=1;jettySize=auto;html=1;" parent="1" source="QS1KN_rrgW-oVOui9iB3-20" target="QS1KN_rrgW-oVOui9iB3-19" edge="1">
          <mxGeometry relative="1" as="geometry">
            <Array as="points" />
          </mxGeometry>
        </mxCell>
        <mxCell id="QS1KN_rrgW-oVOui9iB3-20" value="" style="ellipse;whiteSpace=wrap;html=1;aspect=fixed;rotation=-90;" parent="1" vertex="1">
          <mxGeometry x="620" y="330" width="40" height="40" as="geometry" />
        </mxCell>
        <mxCell id="QS1KN_rrgW-oVOui9iB3-23" value="$$\epsilon$$" style="text;html=1;align=center;verticalAlign=middle;resizable=0;points=[];autosize=1;strokeColor=none;fillColor=none;" parent="1" vertex="1">
          <mxGeometry x="520" y="318" width="90" height="30" as="geometry" />
        </mxCell>
        <mxCell id="QS1KN_rrgW-oVOui9iB3-24" value="$$c$$" style="text;html=1;align=center;verticalAlign=middle;resizable=0;points=[];autosize=1;strokeColor=none;fillColor=none;" parent="1" vertex="1">
          <mxGeometry x="590" y="390" width="60" height="30" as="geometry" />
        </mxCell>
        <mxCell id="QS1KN_rrgW-oVOui9iB3-28" style="edgeStyle=orthogonalEdgeStyle;rounded=0;orthogonalLoop=1;jettySize=auto;html=1;" parent="1" source="QS1KN_rrgW-oVOui9iB3-25" target="QS1KN_rrgW-oVOui9iB3-26" edge="1">
          <mxGeometry relative="1" as="geometry" />
        </mxCell>
        <mxCell id="QS1KN_rrgW-oVOui9iB3-25" value="" style="ellipse;whiteSpace=wrap;html=1;aspect=fixed;rotation=-90;" parent="1" vertex="1">
          <mxGeometry x="480" y="450" width="40" height="40" as="geometry" />
        </mxCell>
        <mxCell id="QS1KN_rrgW-oVOui9iB3-29" style="edgeStyle=orthogonalEdgeStyle;rounded=0;orthogonalLoop=1;jettySize=auto;html=1;" parent="1" source="QS1KN_rrgW-oVOui9iB3-26" target="QS1KN_rrgW-oVOui9iB3-4" edge="1">
          <mxGeometry relative="1" as="geometry" />
        </mxCell>
        <mxCell id="QS1KN_rrgW-oVOui9iB3-26" value="" style="ellipse;whiteSpace=wrap;html=1;aspect=fixed;rotation=-90;" parent="1" vertex="1">
          <mxGeometry x="350" y="450" width="40" height="40" as="geometry" />
        </mxCell>
        <mxCell id="QS1KN_rrgW-oVOui9iB3-31" value="$$b$$" style="text;html=1;align=center;verticalAlign=middle;resizable=0;points=[];autosize=1;strokeColor=none;fillColor=none;" parent="1" vertex="1">
          <mxGeometry x="550" y="438" width="60" height="30" as="geometry" />
        </mxCell>
        <mxCell id="QS1KN_rrgW-oVOui9iB3-32" value="$$\epsilon$$" style="text;html=1;align=center;verticalAlign=middle;resizable=0;points=[];autosize=1;strokeColor=none;fillColor=none;" parent="1" vertex="1">
          <mxGeometry x="390" y="438" width="90" height="30" as="geometry" />
        </mxCell>
        <mxCell id="QS1KN_rrgW-oVOui9iB3-33" value="$$c$$" style="text;html=1;align=center;verticalAlign=middle;resizable=0;points=[];autosize=1;strokeColor=none;fillColor=none;" parent="1" vertex="1">
          <mxGeometry x="280" y="438" width="60" height="30" as="geometry" />
        </mxCell>
        <mxCell id="QS1KN_rrgW-oVOui9iB3-34" value="$$a$$" style="text;html=1;align=center;verticalAlign=middle;resizable=0;points=[];autosize=1;strokeColor=none;fillColor=none;" parent="1" vertex="1">
          <mxGeometry x="231" y="400" width="60" height="30" as="geometry" />
        </mxCell>
        <mxCell id="QS1KN_rrgW-oVOui9iB3-35" value="0" style="text;html=1;align=center;verticalAlign=middle;resizable=0;points=[];autosize=1;strokeColor=none;fillColor=none;" parent="1" vertex="1">
          <mxGeometry x="223.5" y="297.5" width="30" height="30" as="geometry" />
        </mxCell>
        <mxCell id="QS1KN_rrgW-oVOui9iB3-36" value="1" style="text;html=1;align=center;verticalAlign=middle;resizable=0;points=[];autosize=1;strokeColor=none;fillColor=none;" parent="1" vertex="1">
          <mxGeometry x="355" y="297.5" width="30" height="30" as="geometry" />
        </mxCell>
        <mxCell id="QS1KN_rrgW-oVOui9iB3-37" value="0" style="text;html=1;align=center;verticalAlign=middle;resizable=0;points=[];autosize=1;strokeColor=none;fillColor=none;" parent="1" vertex="1">
          <mxGeometry x="485" y="297.5" width="30" height="30" as="geometry" />
        </mxCell>
        <mxCell id="QS1KN_rrgW-oVOui9iB3-38" value="1" style="text;html=1;align=center;verticalAlign=middle;resizable=0;points=[];autosize=1;strokeColor=none;fillColor=none;" parent="1" vertex="1">
          <mxGeometry x="625" y="297.5" width="30" height="30" as="geometry" />
        </mxCell>
        <mxCell id="QS1KN_rrgW-oVOui9iB3-39" value="0" style="text;html=1;align=center;verticalAlign=middle;resizable=0;points=[];autosize=1;strokeColor=none;fillColor=none;" parent="1" vertex="1">
          <mxGeometry x="625" y="498" width="30" height="30" as="geometry" />
        </mxCell>
        <mxCell id="QS1KN_rrgW-oVOui9iB3-40" value="1" style="text;html=1;align=center;verticalAlign=middle;resizable=0;points=[];autosize=1;strokeColor=none;fillColor=none;" parent="1" vertex="1">
          <mxGeometry x="485" y="498" width="30" height="30" as="geometry" />
        </mxCell>
        <mxCell id="QS1KN_rrgW-oVOui9iB3-41" value="0" style="text;html=1;align=center;verticalAlign=middle;resizable=0;points=[];autosize=1;strokeColor=none;fillColor=none;" parent="1" vertex="1">
          <mxGeometry x="355" y="498" width="30" height="30" as="geometry" />
        </mxCell>
        <mxCell id="QS1KN_rrgW-oVOui9iB3-42" value="1" style="text;html=1;align=center;verticalAlign=middle;resizable=0;points=[];autosize=1;strokeColor=none;fillColor=none;" parent="1" vertex="1">
          <mxGeometry x="223.5" y="498" width="30" height="30" as="geometry" />
        </mxCell>
      </root>
    </mxGraphModel>
  </diagram>
  <diagram id="nC-4MPqsrpwo19PCs_Xb" name="NFAs-NFSTs-BDDs-hierarchy">
    <mxGraphModel dx="1633" dy="957" grid="1" gridSize="10" guides="1" tooltips="1" connect="1" arrows="1" fold="1" page="1" pageScale="1" pageWidth="827" pageHeight="1169" math="0" shadow="0">
      <root>
        <mxCell id="0" />
        <mxCell id="1" parent="0" />
        <mxCell id="BaOW7oYXa2N_plmxHbru-1" value="NFA&lt;br&gt;&lt;font style=&quot;font-size: 10px;&quot;&gt;(Delta)&lt;/font&gt;" style="rounded=0;whiteSpace=wrap;html=1;" parent="1" vertex="1">
          <mxGeometry x="330" y="140" width="120" height="60" as="geometry" />
        </mxCell>
        <mxCell id="BaOW7oYXa2N_plmxHbru-6" style="edgeStyle=orthogonalEdgeStyle;rounded=0;orthogonalLoop=1;jettySize=auto;html=1;entryX=0.5;entryY=1;entryDx=0;entryDy=0;endArrow=block;endFill=0;strokeWidth=1;endSize=10;" parent="1" source="BaOW7oYXa2N_plmxHbru-2" target="BaOW7oYXa2N_plmxHbru-1" edge="1">
          <mxGeometry relative="1" as="geometry" />
        </mxCell>
        <mxCell id="BaOW7oYXa2N_plmxHbru-2" value="NFST&lt;br&gt;&lt;font style=&quot;font-size: 10px;&quot;&gt;(levels)&lt;/font&gt;" style="whiteSpace=wrap;html=1;" parent="1" vertex="1">
          <mxGeometry x="330" y="260" width="120" height="60" as="geometry" />
        </mxCell>
        <mxCell id="BaOW7oYXa2N_plmxHbru-4" value="BDD" style="whiteSpace=wrap;html=1;" parent="1" vertex="1">
          <mxGeometry x="330" y="380" width="120" height="60" as="geometry" />
        </mxCell>
        <mxCell id="BaOW7oYXa2N_plmxHbru-5" value="Register NFA&lt;br&gt;&lt;font style=&quot;font-size: 10px;&quot;&gt;(registers)&lt;/font&gt;" style="whiteSpace=wrap;html=1;" parent="1" vertex="1">
          <mxGeometry x="490" y="260" width="120" height="60" as="geometry" />
        </mxCell>
        <mxCell id="BaOW7oYXa2N_plmxHbru-7" style="edgeStyle=orthogonalEdgeStyle;rounded=0;orthogonalLoop=1;jettySize=auto;html=1;endArrow=block;endFill=0;strokeWidth=1;endSize=10;" parent="1" source="BaOW7oYXa2N_plmxHbru-4" target="BaOW7oYXa2N_plmxHbru-2" edge="1">
          <mxGeometry relative="1" as="geometry">
            <mxPoint x="389.8" y="380" as="sourcePoint" />
            <mxPoint x="389.8" y="320" as="targetPoint" />
          </mxGeometry>
        </mxCell>
        <mxCell id="BaOW7oYXa2N_plmxHbru-8" style="edgeStyle=orthogonalEdgeStyle;rounded=0;orthogonalLoop=1;jettySize=auto;html=1;endArrow=block;endFill=0;strokeWidth=1;endSize=10;exitX=0.5;exitY=0;exitDx=0;exitDy=0;" parent="1" source="BaOW7oYXa2N_plmxHbru-5" target="BaOW7oYXa2N_plmxHbru-1" edge="1">
          <mxGeometry relative="1" as="geometry">
            <mxPoint x="400" y="270" as="sourcePoint" />
            <mxPoint x="400" y="210" as="targetPoint" />
          </mxGeometry>
        </mxCell>
        <mxCell id="BaOW7oYXa2N_plmxHbru-9" value="&lt;b&gt;&lt;font style=&quot;font-size: 30px;&quot;&gt;...&lt;/font&gt;&lt;/b&gt;" style="text;html=1;strokeColor=none;fillColor=none;align=center;verticalAlign=middle;whiteSpace=wrap;rounded=0;" parent="1" vertex="1">
          <mxGeometry x="650" y="270" width="60" height="30" as="geometry" />
        </mxCell>
      </root>
    </mxGraphModel>
  </diagram>
</mxfile>
